/* XPM */
static char *_4efed3132bf4cb5c93b91af244ddd09bgfXpZeLpTsaoVv9[] = {
/* columns rows colors chars-per-pixel */
"64 64 160 2 ",
"   c #030405",
".  c #05060A",
"X  c #07080D",
"o  c #090A0E",
"O  c #12110F",
"+  c #070A12",
"@  c #0A0D14",
"#  c #0A0F19",
"$  c #0E1016",
"%  c #0D111C",
"&  c #121215",
"*  c #181717",
"=  c #1A1817",
"-  c #12151C",
";  c #16181E",
":  c #1A1A1D",
">  c #201D1A",
",  c #0D1523",
"<  c #0F1827",
"1  c #0F1728",
"2  c #0F1829",
"3  c #111622",
"4  c #141924",
"5  c #1B1D23",
"6  c #111728",
"7  c #131B2C",
"8  c #191E2A",
"9  c #131E32",
"0  c #181E30",
"q  c #141F38",
"w  c #201F23",
"e  c #1E2025",
"r  c #1C212C",
"t  c #162035",
"y  c #1B2333",
"u  c #1E2535",
"i  c #1C2537",
"p  c #142139",
"a  c #162239",
"s  c #16223B",
"d  c #17243E",
"f  c #18243B",
"g  c #1B263B",
"h  c #18263F",
"j  c #1E293A",
"k  c #1C283C",
"l  c #1E293C",
"z  c #222225",
"x  c #292524",
"c  c #23252B",
"v  c #25262A",
"b  c #26272B",
"n  c #23262F",
"m  c #282729",
"M  c #27282E",
"N  c #2A2A2D",
"B  c #312F2E",
"V  c #32302F",
"C  c #212633",
"Z  c #222733",
"A  c #212835",
"S  c #242A35",
"D  c #2C2D34",
"F  c #212838",
"G  c #242B3B",
"H  c #212B3D",
"J  c #292E39",
"K  c #2F3036",
"L  c #2D313C",
"P  c #2E323D",
"I  c #323234",
"U  c #383736",
"Y  c #34353B",
"T  c #34363A",
"R  c #31353D",
"E  c #36383F",
"W  c #3B3A3D",
"Q  c #46403E",
"!  c #172540",
"~  c #172641",
"^  c #182640",
"/  c #182643",
"(  c #1B2942",
")  c #1C2A43",
"_  c #1E2B43",
"`  c #1A2944",
"'  c #1A2947",
"]  c #1D2C47",
"[  c #1D2C4A",
"{  c #232E43",
"}  c #212F49",
"|  c #263145",
" . c #283143",
".. c #2B3344",
"X. c #24324B",
"o. c #20304E",
"O. c #25334D",
"+. c #26344F",
"@. c #2B354A",
"#. c #2B364C",
"$. c #2E394D",
"%. c #2D384F",
"&. c #313641",
"*. c #373940",
"=. c #363943",
"-. c #343945",
";. c #393C42",
":. c #3B3C43",
">. c #393C46",
",. c #343B4B",
"<. c #3A3F4B",
"1. c #213151",
"2. c #273551",
"3. c #273653",
"4. c #293751",
"5. c #2C3953",
"6. c #2D3E5D",
"7. c #323D53",
"8. c #303E57",
"9. c #313F59",
"0. c #413F42",
"q. c #3C414A",
"w. c #3A404D",
"e. c #3D424D",
"r. c #364054",
"t. c #3C4454",
"y. c #36435A",
"u. c #384359",
"i. c #3D475A",
"p. c #3F495C",
"a. c #394661",
"s. c #414246",
"d. c #444245",
"f. c #40424A",
"g. c #43454C",
"h. c #48464B",
"j. c #4A494C",
"k. c #514C4A",
"l. c #414753",
"z. c #454A55",
"x. c #4B4D54",
"c. c #404758",
"v. c #444B5C",
"b. c #484F5C",
"n. c #554F50",
"m. c #4C5057",
"M. c #4C515C",
"N. c #545255",
"B. c #5A5556",
"V. c #5C5857",
"C. c #52545B",
"Z. c #4A5160",
"A. c #565A63",
"S. c #5A5A60",
"D. c #535B69",
"F. c #5B616E",
"G. c #61646D",
"H. c #66686F",
"J. c #6D6F76",
"K. c #707279",
/* pixels */
"y y 8 , % 2 2 + # $ - 4 3 % # % 3 # % 3 8 0 8 P @.q 9 % # # q t t 2 , i %.j a t i | p , o . + ; v - @ @ # 3 3 % # # @ @ - Y *.i ",
"7 7 2 + 3 G 2 % # % % % - $ $ 3 - % % , 4 F 8 v l.3.' ! a , $ , ! 9 r | a 2 7 9 6 6 7 , # o o 5 : o X # # % - 8 1 , @ - 5 f.Y 8 ",
"8 t , + y r 1 , @ $ % $ $ % 3 4 % % $ % 3 4 8 r >.u.[ ^ ^ ! a % 2 a j _ t t t p 1 2 2 1 1 % + - + o + $ 4 % # 3 7 , # # v ;.A 6 ",
"f r # 3 j 2 9 9 # @ # # % % 3 4 % , % , 3 3 3 8 Y z.6.o.d 3.! , % 2 | O.' a a d t q , 7 2 2 # o o # $ % 4 3 % % 4 , # # D q.C y ",
"j % # C y 7 7 a % # @ @ % % , 4 3 % % % 3 3 , 3 C f.i.3.' #.q 9 $ , r %.( t t t a 7 , 9 7 7 , + + # # , - r 4 $ - , # $ ;.e...{ ",
"4 # 3 J 7 , t ^ 2 % $ # % # # 3 3 , $ , , 4 3 3 6 I z.7.X.h a d , # i 4.X.( d d s 6 , a 9 u , @ + # # $ - ; 8 4 4 6 , 4 <... .7.",
"% % y G 7 2 a h p % # # # $ $ $ 3 $ # % 4 8 7 8 4 r e.p.X.h { ! 2 , | X.f f ( ^ a a 7 f { G # # , # # # , 5 5 r r S r C e.| ,.r ",
"# , J y 2 < t d ! < # # # # # # % $ # 3 4 4 3 - 3 4 C l.,.^ { } d 2 O.o.a 9 7 7 9 q 7 @.P 3 # - 8 7 , , 5 4 3 - 5 z v E i.,.G % ",
"# y ..9 7 7 9 d ! 9 $ # @ X # @ $ % # - - , 3 6 7 7 8 n.F.l.r.v.r.H 5.#.| { { ..,.{ ....3 % # 7 J A u r e e r u S J C j.*.y 8 % ",
"% C y 9 2 7 f ( ' d % # @ # @ # # @ # % # , 6 6 9 u &.B.B.j.;.E Y L Y K K K Y W >.Y >.*.8 # # 8 N K K M r e e r n c c d.t.8 % % ",
"4 @.7 9 , , 8 _ [ ' 7 @ $ % # # # # % % , 3 8 8 i A h.0.I v 8 3 % - e e 5 : 5 e - 4 e 3 , # # $ 5 r e 4 ; ; - - $ $ % r W Y 9 , ",
"% J %.( 7 , % , t d t # $ & - % $ # 3 4 3 4 4 8 Z E W v c r 3 % % $ 4 4 % - 4 % $ $ @ % @ % + % $ % % % % % % % $ % - 4 z W e.t ",
"C 3 7.7.{ p 2 , 2 2 2 # @ @ $ $ + @ 4 - - - 4 C W W 8 4 5 8 3 , % $ % 4 - $ % # % + # # , 9 6 3 % @ # $ % # $ $ $ % - - - e U g.",
"x.u 4 J ..j 9 2 , 9 2 % X @ @ X @ - * $ $ - 8 *.W v 4 - 5 5 3 % % % % $ # % + # # , 2 , n #.9 7 7 , % @ @ @ # @ % : % $ $ - * I ",
"z ;.<.4 , 7 2 , , d t , @ @ @ X + @ $ O $ 8 Y Y w 4 - % 4 - % % % % @ X @ % 2 2 2 9 , , P %.G { t q 2 , % @ @ @ % % % % $ - - & ",
"@ z N.D.y # , # , i k t # X X @ @ @ o @ 4 Y Y 5 3 - # - - % # + X + # # 7 7 9 9 p 9 % , ,...@.5.d a p 2 2 , % @ @ % % % - - $ @ ",
"@ $ m B.F.J % % , 7 j t , @ @ # $ # # - D I : $ $ % $ # # @ + X # 3 0 C | ^ ^ q 6 6 6 C ,.l 5.] a t a a q p q , # # @ % % % $ $ ",
"$ $ % z V.H.A 2 % 4 j 0 7 # o @ & $ - v I 5 $ # @ @ # o . + % % 3 0 8 J 9.o.' 7 6 6 8 J w.{ ( a t d ' ! q 9 7 7 7 , # # @ @ $ # ",
"% # # $ z k.S.,.y % $ y 2 , X # - ; D I 5 & @ + X . . o # % , , , # 3 8 #.1.9 6 7 7 6 -.c.9.! a a ( a 7 7 r J l ' q < , # + o @ ",
"@ # @ @ - m d.K.D. ., + , , + # 5 N K * o . . . + # % , , 3 7 6 , , , , 6 8 8 3 8 y G <.v.a.{ d p 2 7 t t G | t t a p 2 , # + @ ",
"# + o @ $ - ; I J.G.,.y % , % # 5 z @ . . o # $ 4 r C C A A F i y C 8 4 6 A &.P ..*.>.h.M.i.3.f 9 t y G ..@.a 7 9 9 q 2 2 2 , , ",
", , # @ @ @ X $ v N.A.x.P - + X $ @ + & v D I D I E W 0.d.s.q.Y 0.d.*.Y D Y j.N.n.g.>.Y L Y ,.{ G H @.y.%.{ s q 9 1 , , 2 2 , , ",
"1 2 , % # + X o @ w * @ o . ; -.i , o @ : z 5 5 : 5 e n m z e e v N v 5 ; 5 N D U Y -.C 8 c C E t.,.5.O.@.G t 9 1 , , 1 2 , # , ",
", 2 7 7 7 % # o X o . . X ; e.t.9 3 @ X @ & $ @ @ # % $ $ $ % $ - - - - # # 4 4 C J &.u - 4 4 5 N ;.<. ... .u 8 2 r 7 2 2 # , , ",
"J G J ;.;.P r 5 + . @ - c z.e.G 9 7 # + + $ @ @ @ # @ $ # $ # # @ @ # - # , - % 4 C ,.6.2 , , , - e b ;.;.>.>.Y J P Y G r n Z J ",
"n v B ;.W Y s.P + o 5 D h.D.G u 8 6 , # o @ & @ @ @ # $ % $ $ # @ @ # - # # % , % 4 P y.a 2 p a 7 9 3 z z 5 c r ; 5 v r ; z x v ",
"# - 5 : - - 5 - o + - : Y b.y 7 7 7 6 6 # o @ @ $ $ # % % % # # # $ @ $ # # % , $ 4 K i.X.2 8 { ( ( 7 9 , % % 2 % 4 - # o $ - @ ",
"+ @ ; - # - r # X @ $ & D D.4 , 3 , , 7 , @ o + # $ # $ % % @ # @ @ @ @ + # % % 3 3 r T | 2 , a { t 8 j a t % , , , # o X X # % ",
"o + @ + @ - - + + - @ @ K D.3 # # , 7 9 a % + + # # # $ % $ # + # @ + # @ o $ % , 4 e r  .j 3 8 ] t r G ( q q 7 9 2 , # # @ + # ",
"@ 4 , + o @ # X + 4 @ + b m.3 # % 6 a a ! a % % $ @ % $ # @ + # @ @ o @ @ + # % 3 3 ; ; c ,.6 y j f u G G a 7 % 2 9 # , , 3 , @ ",
"@ 5 8 , 3 8 @ X + $ @ + 5 l.4 # 7 t s s a ' 9 # # % @ $ @ + @ o X X o X + @ # % $ 3 % - 5 Y @. .3 r y r 0 f , + # 2 # , 3 , # , ",
"@ 5 5 - 5 v X X @ $ + # N x.8 # 6 a ' ^ ! [ ! 1 # # @ # o @ @ @ + X + + o @ # % % $ - % 5 v l. .r 5 y 7 , , # # # # , 8 7 , % # ",
"% - $ $ - - . . $ # + $ K j.u , , t ( ] ] ( ' ! # @ X # $ + $ @ @ + @ X X @ @ # @ # - - & : B z.J 8 8 8 7 , # , # # 3 u 4 , % % ",
"- $ , % 5 + . X - $ # % D g.l 9 7 7 t ( X.f _ a < X @ $ $ + # @ # @ @ + + @ X @ # @ # + @ @ : W Z.J 4 3 3 , , # + @ # 4 , # # 8 ",
"% % , 3 3 o   o # # # $ v ;.j t 9 , , t f t a t 6 % X X $ $ $ $ X o @ # $ + @ % , @ @ o o o o w C.-.3 # # # , # + + + # , $ # 7 ",
"% # , 8 $ . . @ - # % $ n Y y 2 9 9 , 2 6 9 a 2 2 , X . . $ @ + @ @ % $ + X # $ + , @ o o X X o N W 4 @ + + # # # , , , # # @ 5 ",
"% % 3 r $ . o $ - # # $ v ;.r r 7 2 2 % , < 2 , , , # X X @ @ # # $ - $ o @ @ @ @ 5 8 # + X X o - N w # X @ + + % % - 3 # o - 4 ",
"2 # $ 4 # X # - @ + # # m K u 4 2 , , , % < 2 2 < < , # . @ # @ $ @ $ X X X X @ $ 5 G 0 # @ + X O z w @ X X . X @ @ $ 3 $ - e 4 ",
"r % 4 7 # + $ - o + + + w x e r 4 , , % % 3 t r r 2 , # X @ @ @ $ @ X @ o . X # $ & 5 5 8 3 # + X O @ o . . . o $ - 4 K 5 * * 5 ",
"; 8 j 4 + % % $ X + o X 5 e 5 4 $ @ % @ @ % % - < % % , # X + + # $ $ X . . o $ $ @ & $ - 5 8 - + & o   . .   . O - : : $ @ o & ",
"o - &.r + # - + X X . o b : = $ @ + @ @ + % % # # # # , , + X # @ $ @ . X X . @ & O o o o & - 5 ; N ; X   .       . . X X . . o ",
"+ @ 5 % + # ; o X . X . z $ $ - + @ $ @ + + % # # % % % , , . @ @ X . X X o o O @ o o o X o @ & w W N $ ; . . .   .   . o . . o ",
"@ # @ o X @ - . X . . o ; @ : n % ; ; - % # , , + @ % % r , @ X @ . . X . o O O & o o o o o o o O x K n - @ ; ; $ $ @ o + + + @ ",
", 3 % X X + + X . X o * b . e K e ; ; ; ; ; % # X o % e i , + X .   . . . .   . o X . . . . X X o & v ; X o & ; : ; e r r 7 , , ",
"6 G $ o X $ # + .   . = Y & & x * o & - % e e % @ $ , F k 4 + + . . X o o .       . X X . . . o $ * z % + . X X o o ; : r J G 8 ",
"r A $ . @ 5 % X       . O . o . .       . X $ . X 4 r u 7 , # # . . X o o . o     . . . . . . o & ; : $ # # X . X o X @ $ ; F F ",
"J & X . w n 3 +             : e .         . X X . + X X # $ # # o . . X   . o .     . o o o @ & & O $ $ r # + X X @ # # $ $ ; y ",
"n % . . : : e : * & O X   * B U ;       . . @ # + , # # # # # % % o       & o   . . X . @ o & * ; @ X 4 y # # + . # % % , % $ - ",
"r @   X = * w x m z *     O x U K & o   . X $ # , 2 2 , $ , , % , # .   . X X .   .     . . X * & . @ K C 3 7 , # $ 7 4 4 4 3 ; ",
"* o X & O o O O = =         = I s.N - o X + % % , , , 2 t j t $ % % +   . X X .   .   . o X . & $ o $ >.A 4 r , % $ 4 3 4 ; - - ",
"@ . X X . .     O o         = x Q d.b 5 4 4 % % % 4 7 , y G t , # % , +   . .     .   . . o o & o o : E e % % % # # # @ # @ # o ",
"X o X     .     O o       o O o : g.K z S r r 7 4 u i 7 C a 9 2 # # , % o . o .   . . o . o & o X @ z K 4 # % % # # + @ # @ @ @ ",
"o # X . .   . . o X     . = .   o V E - - n  .-.j G ..&...u 6 t , # , , # . . . . . . o X . . . X $ m S r , # # # # # + X + + + ",
"- j @ . . . X $ = O o   O o . . . = ;.S ; @ - C 8 Z ..P .. .u q 2 # # # , # .   . .   .   . . . o - C 5 ; , # # # # # # @ + + + ",
"D C # X X . . o * & . . o       X o I q.y - - 3 $ $ % % ; y j l 9 , # , , , X . .     .   X   . o : K e 4 % # % % # + % # X X # ",
"l.y $ @ . . o $ & o . .   .   o . o x q. .r 3 # % , 8 , , % , 8 t 2 , # % % @ . . . .   .   . . X z K 5 4 % # % % 4 @ + X X X 4 ",
"b.u , + . . o * o . . . . . o + X o * U z.Z # # % 6 L u r t t d t t 9 , 1 1 , X X o . o . . . . o m b - - % % $ # % + X + @ + r ",
",.9 1 , . X & * . . + o . o o @ o . $ b g.G , + $ 5 J H l u t ( a q 2 t s 9 2 , . X . . . . . . & m 5 @ $ % % # + @ X + + @ + K ",
"G 9 , 1 @ + - o . @ & # X X . o o + o & I J , # # @ $ S G t 7 t t a , 8 4.^ 9 1 # . . o . . . X : N $ o @ $ @ # # + + + @ @ % w.",
"7 , 7 7 3 @ $ . o - & @ + # + + @ @ + @ 5 -.8 # @ # @ - P a 9 7 2 1 , 1 | #.a 9 , X . . . . o # m I $ o $ $ # + X + # @ + @ r w.",
"t 2 , 7 q # . + - & @ + + # @ + @ @ X o - E .., @ # % % ..| / t 2 % , 6 y %.@.{ 9 $ + o o @ $ ; U ;.$ + @ # o X + + # # # % J w.",
"9 9 , 2 q % o $ - @ # @ @ @ @ + # % # # @ b e.l , @ % % r O.] d 2 % , t a ,.7.5.( q # . o & & : U Y % + @ + X + + + + # # % P l ",
"7 7 , % , , # - @ @ # # % % @ @ % % , 7 3 3 D y.a , # % 4 | X.p 9 , , t | 5.%.5.h a , o o & $ = x 5 7 , + + + + + + # $ $ $ q.y ",
"9 q 9 1 % # @ @ @ @ # % 3 $ # - $ % % 1 4 7 8 ..9 2 % # % 6 ] 9 2 , $ 6 @.O.{ @.o.d 9 % o + $ $ : - r , # + # + # # # + @ e q.j "
};
