/* XPM */
static char *result[] = {
/* columns rows colors chars-per-pixel */
"64 64 72 1 ",
"  c #160F0D",
". c #180F0E",
"X c #15110F",
"o c #1B120E",
"O c #161211",
"+ c #1B1512",
"@ c #1E1916",
"# c #1C1B18",
"$ c #20140F",
"% c #231713",
"& c #241A15",
"* c #2A1C16",
"= c #251D1A",
"- c #2B1E1A",
"; c #311F1A",
": c #2C2017",
"> c #27201C",
", c #2D211D",
"< c #302017",
"1 c #32231D",
"2 c #39271E",
"3 c #35281F",
"4 c #3A291E",
"5 c #2D2421",
"6 c #2F2924",
"7 c #342622",
"8 c #392722",
"9 c #352924",
"0 c #3C2B24",
"q c #362F29",
"w c #3D2D29",
"e c #3E3026",
"r c #37312B",
"t c #3C322B",
"y c #412E24",
"u c #412E2A",
"i c #443225",
"p c #483626",
"a c #4A3827",
"s c #44342B",
"d c #49362C",
"f c #46382D",
"g c #4C3A2C",
"h c #513C2E",
"j c #453730",
"k c #493630",
"l c #443931",
"z c #4C3B31",
"x c #533E33",
"c c #554135",
"v c #5B4436",
"b c #554339",
"n c #5B4539",
"m c #5E483A",
"M c #624937",
"N c #60473A",
"B c #634B3C",
"V c #684F3E",
"C c #67513E",
"Z c #6A513F",
"A c #634E41",
"S c #675244",
"D c #6A5243",
"F c #705745",
"G c #725947",
"H c #745B4A",
"J c #795F4E",
"K c #7A614E",
"L c #7E6350",
"P c #80614D",
"I c #826652",
"U c #856954",
/* pixels */
"sghhhpiiyy4y4y4yyiispipasiisyyy000yyw00yyiiyssiuiiswiuppduyyyyys",
"00444yyyiippaahhhsyyiyyiiiiiispsiiuyyisyywyyuyywwyyyusuupyisuyyy",
"e0404pdgaahhahhhzazgsis8ysssdsspdpfssusy01wwsdddsssfkkkssuu7778i",
"i31,1yipaaahgaaagagpy*6*2isssjssdsuuuyww7>5-wwwwwuusskdfdky;>-2y",
"fayyysidpyppiy00yyipssuuisssfsffsssupudkpdddfzdkgzkzdddkzzzxdagg",
",*-;11;2822<,1222123177793330sdgxxxxxxxxxgkssyw73711,-&%%+%*>&=;",
"&&&%%$..o. ... .o%*13878999311,=%O+..O OO+O+O..+++o+%&**-11--*%%",
"-;--&*--%;*;***140wisfjjiew08wyyuuuuw8w997888808yyyy0020y8711-;;",
"--=-%%------=--55577---==>-55-7>-5>7557;557=;7;7775;;;5;;;--=-==",
";-%==%55-----=>->>==@#q+@==-==########==@=-%5;57;775777;,,-%--%-",
";55555577555>77757555557577755555>#=###===>-=-====--;;5777;;5--;",
"77555===--5>5>>===557777w8wwwwww9777775555-55=55;55=5-=-->55--57",
"-5-5-555557779w98w79wwutukkkzzlzzzzzjjuuuwwuuwwwww787775;55>5-=>",
"875555--5=55577777777w9755577775757999www889909778w8757;5;77777q",
"775;578w87977999w7797799www89897777799w97>5779977wwwww9977555>77",
"u75w57wwwwwuwuuwwusju9w0uzkuswwwwqq8895-=q==599wwwwwwwwwww7-55-w",
"ku8=7ww877wwwwwwwuww7-5=9w7,577555,,,515,19issjjkkjjujuuuuu7558u",
"78wuuuuuwww77wwwwwwwwwuklksjsfdfe009w000tsswq9wq78w7w7wwww777977",
"5555-=5->=====@@@@@=--5-;;55,-,7ee91317790wwwuw0w8755-=55557775;",
"=+@@@@@OO@O###@==@@@++O.OOO+O++OXXOXXXOOX++O+O++@@@@@+OOOO@.+O@=",
"ww7ww8675777www988777755555555>>555>>>55555555555557755555578w77",
">=55=5ww77wwwwujkkkkw757ujuuwww97999775->5-,77wwwwuwwww78757-=55",
"u75=5uwtw55555767775==8=-7w9799wwwwqwww7=t>7www0w7776w7wuu8-677u",
"wujuuwuuw7www79975775==57wwwwww08w9739789-700wwewwuwwwwwww77555w",
"wuuufssfkzkzkzkkkkkkssuuwwww9wwwwwtswtuussssdgdgzggffpsswussw0tw",
"557777755>>779w7wwww0w80wwww0899wweesuwisissfdfsfsssiswew977131,",
"ddkusiw07,,5=->->>=>>>>>,,15,739990eeiw0eeiiiiwpieiissddkgddfggf",
"uukkssyuwwwwqwww7ww77738877,,711,,7133040220i00837790000w8wyisss",
"8875,yuuusuuuwwww787=+l@&,192700wuyy8021*t5*1233988w888971-&5,=3",
"-%=-=;0wwywsjjkkkkuu8;--38008y048yyyi023**&,;182000wyyuuy81%&@%&",
"idddzgkfuwwssdsujuwuu888224e0424yyp4444yy400y0y04iwwyywyyyypiiii",
"*%&&&=&-,-*===--=----;11,<<<::*********%%%$%$$$o%%%&&&&*&&&&&**&",
"*-,11111,1111<<1::*:**:*-1-:---*-*;1;1<42223<<<11<<,-------***;*",
"yy42008000440iyi4iiiyi4y44000wyyyy88111;-<1<*1;<:-1;;31222yiyiii",
"p176<40e0eyyipsipsppy:w*340y88408wwyuipy:,1:4442282220040y02<2pp",
"4<>*:94y4yyyyiiye82e4:1*1yiy00y4y044yu8;&>>$-*;,,,,1,,1131;&71<4",
"4iiyiyy4y44yyiipppsspaapipypiy4y424yyy44221287773937380yyyi0:300",
"i044004yipipspagspppiipahahhhppiiiiyyy0ywyyww08839818804yyy0000y",
"793888040w0yyy4yypiiyyyyyy4yy444221120y0uufdpduy0w00880244088729",
"-=&*&=*>***&%***&&&&*$****%*;**--,-;11111,-1,---*-**,11--**---=*",
">-*&>:>11,-----*;1;;*&&=<422<31131,1,,,1111777131111;111;;1:&>>-",
"3*93&,1,,11;1;--;***%76*<444<2222290009>&r-8eewww88yiyy422<*91-2",
"42124y4y4224444221244314y4yyppyy44w00iii310pgggasypippaayyy21144",
"iiy4444424022133242233224444yypippi043132208971338840y04yyyyyipp",
"&%+o$ooooo++oo%&&+++o$&*&%&&&&&&%&&*:&&&%&%*%&@%%&&*::>:::*,*%%&",
"119313381-11739730e8233<13444423344yee02997971777,>=-,,,,11,<111",
"gaghghcvxvxhgffssssssafiiw4440yiiyyyyyiiaippiffagzgdfspssfaggxhg",
"xhp0pghcvcvxxxzgghzdp42ypaayii4024ypppi2*r*2eipfdggggdaggggsieag",
"fi3t7sdgxhadadsiwisi41t12iiiiiiiphhhxxxhp04pgghhzahpppsssps3393i",
"afsszxzxhxcgghhdzbhxxhsaagaapspdhxcxvxxxghaaaahhcchagdpppspp00ff",
"mvnbxzzxxczbbbxxxxxmmnmBmmnxlfsfgbnNvMnnmVmmmCZZCVVVDVVBBBCDDZBB",
"HHSSAmmxzbbmbbzlzlbAGJJSASSSAbbzcnSDVDDHGHKHKLKKPIUUIIIULLKJKKLK",
"mBnnxkzzxmnADFSnxbxzlsterlzxbbbnmAAmANnnmVDKHFFDVVANnBAVBVmBBmBm",
"cxzjsujlljkzzzxzxzltw>5>tfzzlljjzjzxxnNBmBBBmmNvmNnxxxnxbmmvbmmm",
"xz7>0gxbxnANmnncxzzdw1l1pxzzzljjjkzkskss2,63dxxxvnnnnxxxbxci19ig",
"xzeqsjxxxxmNmmAABVNNmvzxxxzzzkzzzzzkjjfss77wkkkzzcxNmAAABVmcfszc",
"xdsssfffkssggagccMMvvcxxgsfsuutesssssjfffft07770wwyffffdaxMMmvbc",
",1>>-*=*&-*&3331:11:1311,-=%+@%%@%#%=-==&&@%==--%&&=,,3190,,,:,,",
"vvvcbxghxvxmbvmMNVDNmBmmvxbxzkddsusssdzgxddgzzzxxxbvNVVCVmmvvvmv",
"zaieiwe0uwyuypsphddhhazgxvvvxxccxnnnnNvnbvvcbvxxxxxxvbbcxxxxxxxh",
"hp89yahvvcxbxxxvvxxch0eyhxMxvvvvMvMMBVMh3qicvmvvmvnvnvmMMVvi,3ih",
"caeepvvvcvvvmvvxbvxxdyeygxxvMcMMvvcchhgaeephcccvvxchhzchxxay0eah",
"ggappipiphhhhhazadsdpdghxhhhcchggasghhapiiiiiigggaaasaggasspsaga",
"aggghhgappippsppfiiyyipdddpaagggfiieyy0099939eet99990wssseipsspp"
};
