/* XPM */
static char *result[] = {
/* columns rows colors chars-per-pixel */
"64 64 79 1 ",
"  c #2E0700",
". c #2E0900",
"X c #2F0900",
"o c #2F0A00",
"O c #2F0B00",
"+ c #2E0E00",
"@ c #2E0F00",
"# c #2F0F00",
"$ c #300E00",
"% c #300F00",
"& c #300F01",
"* c #2F1000",
"= c #2F1100",
"- c #2F1101",
"; c #2F1201",
": c #2F1301",
"> c #2F1401",
", c #2F1402",
"< c #2F1D04",
"1 c #301001",
"2 c #301301",
"3 c #301102",
"4 c #311202",
"5 c #311302",
"6 c #301402",
"7 c #301403",
"8 c #311403",
"9 c #301503",
"0 c #311503",
"q c #301603",
"w c #301703",
"e c #311504",
"r c #311604",
"t c #311704",
"y c #321604",
"u c #331604",
"i c #321704",
"p c #331704",
"a c #351404",
"s c #351504",
"d c #361405",
"f c #371405",
"g c #361505",
"h c #341604",
"j c #381405",
"k c #391406",
"l c #301803",
"z c #311C02",
"x c #311C03",
"c c #301804",
"v c #311804",
"b c #301904",
"n c #311904",
"m c #321804",
"M c #331905",
"N c #301A04",
"B c #311A04",
"V c #301B04",
"C c #311B05",
"Z c #321A05",
"A c #331A05",
"S c #321B05",
"D c #341805",
"F c #351905",
"G c #341A05",
"H c #341B05",
"J c #351906",
"K c #361806",
"L c #371806",
"P c #361906",
"I c #371906",
"U c #301C04",
"Y c #311C04",
"T c #301D04",
"R c #311D04",
"E c #311C05",
"W c #311D05",
"Q c #381806",
"! c None",
/* pixels */
"!!!!!!!!!!!!!!!!!!!!!!!!!!!!!!!!!!!!!!!!!!!!!!!!!!!!!!!!!!!!!!!!",
"!!!!!!!!!!!!!!!!!!!!!!!!!!!!!!!!!!!!!!!!!!!!!!!!!!!!!!!!!!!!!!!!",
"!!!!!!!!!!!!!!!!!!!!!!!!!!!!!!!!!!!!!!!!!!!!!!!!!!!!!!!!!!!!!!!!",
"!!!!!!!!!!!!!!!!!!!!!!!!!!!!!!!!!!!!!!!!!!!!!!!!!!!!!!!!!!!!!!!!",
"!!!!!!!!!!!!!!!!!!!!!!!!!!!!!!!!!!!!!!!!!!!!!!!!!!!!!!!!!!!!!!!!",
"!!!!!!!!!!!!!!!!!!!!!!!!!!!!!!!!!!!!!!!!!!!!!!!!!!!!!!!!!!!!!!!!",
"!!!!!!!!!!!!!!!!!!!!!!!!!!!!!!!!!!k!!!!!!!!!!!!!!!!!!!!!!!!!!!!!",
"!!!!!!!!!!!!!!!!!!!!!!!!!!!!!!!!!!!j!!!!!!!!!!!!!!!!!!!!!!!!!!!!",
"!!!!!!!!!!!!!!!!!!!!!!!!!!!!!!!!!!!!f!!!!!!!!!!!!!!!!!!!!!!!!!!!",
"!!!!!!!!!!!!!!!!!!!!!!!!!!!!!!!!!!!!ff!!!!!!!!!!!!!!!!!!!!!!!!!!",
"!!!!!!!!!!!!!!!!!!Q!!!!!!!!!!!!!!!!!fd!!!!!!!!!!!!!!!!!!!!!!!!!!",
"!!!!!!!!!!!!!!!!!!!L!!!!!!!!!!!!!!!!dd!!!!!!!!!!!!!!!!!!!!!!!!!!",
"!!!!!!!!!!!!!!!!!!!I!!!!!!!!!!!!!!!!d!!!!!!!!!!!!!!!!!!!!!!!!!!!",
"!!!!!!!!!!!!!!!!!!!PP!!!!K!!!!!!!!!!g!!!!!!!!!!!!!!!!!!!!!!!!!!!",
"!!!!!!!!!!!!!!!!!!!!!P!!!!!!!!!!!!!!g!a!!!!!!!!!!!!!!!!!!!!!!!!!",
"!!!!!!!!!!!!!!!!!!!!!P!!K!!!!!!!!!!!ga!!!!!!!!!!!!!!!!!!!!!!!!!!",
"!!!!!!!!!!!!!!!!!!!!!!P!P!!!!!!!!!!!s!!!!!!!!!!!!!!!!!!!!!!!!!!!",
"!!!!!!!!!!!!!!!!!!!!!!P!!!!!!!!!!!!!s!!!!!!!!!!!!!!!!!!!!!!!!!!!",
"!!!!!!!!!!!!!!!!!!!!!!JJ!!!!!!!!!!!!h!!!!!!!!!!!!!!!!!!!!!!!!!!!",
"!!!!!!!!!!!!!!!!!!!!!!!F!!!!!!!!!!!!h!!!!!!!!!!!!!!!!! !!!!!!!!!",
"!!!!!!!!!!!!!!!!!H!!!!!G!!!!!!!!!!!!h!!!!!!!!!!!!!!!!X!!!!!!!!!!",
"!!!!!!!!!!!!!!!!!!!HG!!G!!!!!!D!!D!!u!!!!!!!!!!!!!!!o.!!!!!!!!!!",
"!!!!!!!!!!!!!!!!!!!!!GGGG!!!!!!!!!p!u!!!!!!!!!!!!!!!o!!!!!!!!!!!",
"!!!!!!!!!!!!!!!!!!!!!!AAA!!!!M!!!!!pp!!!!!!!!!!!!!!O!!!!!!!!!!!!",
"!!!!!!!!!!!!!!!!!!!!!!!!A!!!M!!!!!!ii!!!!!!!!!!!!!!!!!!!!!!!!!!!",
"!!!!!!!!!!!!!!!!!!!!!!!!A!!!!!!!!!!ii!y!!!!!!!!!!$!!!!!!!!!!!!!!",
"!!!!!!!!!!!!!!!!!!!!!!!!SZZZ!!!!!!!mir!!!!!!!!!&%!!!!!!!!!!!!!!!",
"!!!!!!!!!!!!!!!!!!!!!!!!SSZ!!!!!!!!mt!!!!!!!431!!!!!!!!!!!!!!!!!",
"!!!!!!!!!!!!!!!!!!!!!!!!SS!!!!!!!!!vt!!!088543!!!!!!!!!!!!!!!!!!",
"!!!!!!!!!!!!!!!!!!!!!!!!SS!!!!!!!!!vv!re08!!!!!!!!!!!!!!!!!!!!!!",
"!!!!!!!!!!!!!!!!!E!!!!!!CC!!!!!!!!vvvtrr!!!!!!!!!!!!!!!!!!!!!!!!",
"!!!!!x!!!!!!!!!!!E!!!!!!CC!!!!!!!!vvvt!!!!!!!!!!!!+!!!!!!!!!!!!!",
"!!!zzxxx!!!!!!!!!R!!!!!!EC!!!!!!!!vvv!!!!!!!!!!!!#!!!!!!!!!!!!!!",
"!!!!!!!!RRR!!!!!!!W!!!!!EE!!!!!!!!vv!!!!!!!!!!!!*!!!!!!!!!!!!!!!",
"!!!!!!!!!!!R!!!!!!R!!!!!EE!!!!!!!!nv!!!!!!!!!!;-!!!!!!!!!!!!!!!!",
"!!!!!!!!!!!!R!!RRRRWWE!!!EE!!!!!!nnv!!!!!!7662!!!!!!!!!!!!!!!!!!",
"!!!!!!!!!!!!!RRRRRRRWWEEEEE!!!!!!nnv!!!!!99!!!!!!!!!!!!!!!!!!!!!",
"!!!!!!!!!!!!!RR!!!!!!!!EEEYY!!!!!Bnn!!!!qq96!!!!!!!@!!!!!!!!!!!!",
"!!!!!!!!!!!!!!!!!!!!!!!!!YYYY!!!!Bn!!!cw!!!!6,!!!=!!!!!!!!!!!!!!",
"!!!!!!!!!!!!!!!!!!!!!!!!!!YYY!!!!Bb!!!cl!!!!!,>!;!!!!!!!!!!!!!!!",
"!!!!!!!!!!!!!!!!!!!!!!!!!!YYY!!!!NN!!cc!!!!!!!!:!!!!!!!!!!!!!!!!",
"!!!!!!!!!!!!!!!!!!!!!!!!!!!UUU!!VNNbbc!!!!!!!!!!!!!!!!!!!!!!!!!!",
"!!!!!!!!!!!!!!!!!!!!!!!!!!!UUU!!VNNNb!!!!!!!!!!!!!!!!!!!!!!!!!!!",
"!!!!!!!!!!!!!!!!!!!!!!!!!!!UUU!!VVNN!!!!!!!!!!!!!!!!!!!!!!!!!!!!",
"!!!!!!!!!!!!!!!!!!!!!!!!!!!TUUUVVVN!!!!!!!!!!!!!!!!!!!!!!!!!!!!!",
"!!!!!!!!!!!!!!!!!!!!!!!!!!!TUUUUVV!!!!!!!!!!!!!!!!!!!!!!!!!!!!!!",
"!!!!!!!!!!!!!!!!!!!!!!!!!!!TTUUUVV!!!!!!!!!!!!!!!!!!!!!!!!!!!!!!",
"!!!!!!!!!!!!!!!!!!!!!!!!!!!TTUUUU!!!!!!!!!!!!!!!!!!!!!!!!!!!!!!!",
"!!!!!!!!!!!!!!!!!!!!!!!!!!!TTTUUU!!!!!!!!!!!!!!!!!!!!!!!!!!!!!!!",
"!!!!!!!!!!!!!!!!!!!!!!!!!!!!TTUUU!!!!!!!!!!!!!!!!!!!!!!!!!!!!!!!",
"!!!!!!!!!!!!!!!!!!!!!!!!!!!!TTTUU!!!!!!!!!!!!!!!!!!!!!!!!!!!!!!!",
"!!!!!!!!!!!!!!!!!!!!!!!!!!!!TTTUU!!!!!!!!!!!!!!!!!!!!!!!!!!!!!!!",
"!!!!!!!!!!!!!!!!!!!!!!!!!!!!!TTTU!!!!!!!!!!!!!!!!!!!!!!!!!!!!!!!",
"!!!!!!!!!!!!!!!!!!!!!!!!!!!!!TTTU!!!!!!!!!!!!!!!!!!!!!!!!!!!!!!!",
"!!!!!!!!!!!!!!!!!!!!!!!!!!!!!TTTT!!!!!!!!!!!!!!!!!!!!!!!!!!!!!!!",
"!!!!!!!!!!!!!!!!!!!!!!!!!!!!!TTTT!!!!!!!!!!!!!!!!!!!!!!!!!!!!!!!",
"!!!!!!!!!!!!!!!!!!!!!!!!!!!!!TTTT!!!!!!!!!!!!!!!!!!!!!!!!!!!!!!!",
"!!!!!!!!!!!!!!!!!!!!!!!!!!!!<<<TT!!!!!!!!!!!!!!!!!!!!!!!!!!!!!!!",
"!!!!!!!!!!!!!!!!!!!!!!!!!!!!<<<<<!!!!!!!!!!!!!!!!!!!!!!!!!!!!!!!",
"!!!!!!!!!!!!!!!!!!!!!!!!!!!!<<<<<!!!!!!!!!!!!!!!!!!!!!!!!!!!!!!!",
"!!!!!!!!!!!!!!!!!!!!!!!!!!!!<<<<<<!!!!!!!!!!!!!!!!!!!!!!!!!!!!!!",
"!!!!!!!!!!!!!!!!!!!!!!!!!!!!<<<<<<!!!!!!!!!!!!!!!!!!!!!!!!!!!!!!",
"!!!!!!!!!!!!!!!!!!!!!!!!!!!!<<<<<<!!!!!!!!!!!!!!!!!!!!!!!!!!!!!!",
"!!!!!!!!!!!!!!!!!!!!!!!!!!!!!<<<<<!!!!!!!!!!!!!!!!!!!!!!!!!!!!!!"
};
