/* XPM */
static char *_7ed7386abfd4241bf3bcbc619270b1cXf7OBwnoXoPKyMqS[] = {
/* columns rows colors chars-per-pixel */
"64 64 229 2 ",
"   c #0B0807",
".  c #0E0B09",
"X  c #110D0A",
"o  c #190F09",
"O  c #17110D",
"+  c #1B130E",
"@  c #1D1511",
"#  c #1F1815",
"$  c #2D1B0E",
"%  c #211612",
"&  c #231914",
"*  c #2C1C14",
"=  c #271E19",
"-  c #281F19",
";  c #341D14",
":  c #371E14",
">  c #2D2215",
",  c #2C211B",
"<  c #3B2514",
"1  c #33251D",
"2  c #3B261C",
"3  c #3A281E",
"4  c #342923",
"5  c #372C25",
"6  c #3C2C24",
"7  c #3E3225",
"8  c #3C322B",
"9  c #422415",
"0  c #452C1D",
"q  c #562917",
"w  c #52391A",
"e  c #632F19",
"r  c #63361A",
"t  c #7A3517",
"y  c #422E24",
"u  c #4E2E22",
"i  c #443126",
"p  c #4B3225",
"a  c #44342B",
"s  c #4A352B",
"d  c #4B382E",
"f  c #543224",
"g  c #5B3424",
"h  c #573827",
"j  c #5C3A24",
"k  c #54362A",
"l  c #523A2E",
"z  c #5B3B2C",
"x  c #443730",
"c  c #453B33",
"v  c #4C3C33",
"b  c #4A3B34",
"n  c #4B3F38",
"m  c #523D33",
"M  c #593F31",
"N  c #693824",
"B  c #643B2A",
"V  c #6C3C2A",
"C  c #733B24",
"Z  c #7B3C25",
"A  c #723D2A",
"S  c #58412C",
"D  c #4D4136",
"F  c #4D433B",
"G  c #554136",
"H  c #5A4335",
"J  c #53453B",
"K  c #5A453A",
"L  c #54493E",
"P  c #5B4A3D",
"I  c #5F503F",
"U  c #62402D",
"Y  c #69452D",
"T  c #79462A",
"R  c #7B552E",
"E  c #614333",
"W  c #6A4432",
"Q  c #6B4D35",
"!  c #624739",
"~  c #624C3D",
"^  c #6B4C3B",
"/  c #764D33",
"(  c #734E3B",
")  c #68513C",
"_  c #795634",
"`  c #72533E",
"'  c #4E4641",
"]  c #4F4943",
"[  c #524740",
"{  c #544C44",
"}  c #5A4D43",
"|  c #564F48",
" . c #5B4F48",
".. c #565047",
"X. c #5B5146",
"o. c #575148",
"O. c #5B534A",
"+. c #5F584D",
"@. c #5E5752",
"#. c #624E41",
"$. c #6C4E41",
"%. c #635244",
"&. c #6A5545",
"*. c #6C5946",
"=. c #63564A",
"-. c #695749",
";. c #64594D",
":. c #6C5A4C",
">. c #735B45",
",. c #7A5943",
"<. c #725E4C",
"1. c #625750",
"2. c #655C52",
"3. c #6B5E52",
"4. c #725F51",
"5. c #6B604B",
"6. c #7C6144",
"7. c #75614E",
"8. c #7A634D",
"9. c #676055",
"0. c #6B6256",
"q. c #6D6559",
"w. c #6F685A",
"e. c #746253",
"r. c #7B6652",
"t. c #7D6955",
"y. c #72655A",
"u. c #72695C",
"i. c #7A6A5D",
"p. c #756C62",
"a. c #7B6E62",
"s. c #7D7266",
"d. c #7D746A",
"f. c #863C1E",
"g. c #A43E1D",
"h. c #843C23",
"j. c #8B3E24",
"k. c #933D22",
"l. c #9A3E21",
"z. c #97421E",
"x. c #A6431D",
"c. c #B3451E",
"v. c #BD501B",
"b. c #8D4224",
"n. c #894929",
"m. c #934424",
"M. c #9C4324",
"N. c #994B27",
"B. c #89532B",
"V. c #99592C",
"C. c #824B32",
"Z. c #895935",
"A. c #965833",
"S. c #A74622",
"D. c #AB4C23",
"F. c #B94C22",
"G. c #A85827",
"H. c #BD5424",
"J. c #B55728",
"K. c #A25730",
"L. c #96672D",
"P. c #8C653A",
"I. c #976538",
"U. c #B8642A",
"Y. c #B16C2F",
"T. c #A96832",
"R. c #C1481E",
"E. c #CE561D",
"W. c #C35A25",
"Q. c #C85923",
"!. c #D15A23",
"~. c #CA6A29",
"^. c #D26525",
"/. c #D36924",
"(. c #DA6823",
"). c #CD7829",
"_. c #D6762A",
"`. c #C46C32",
"'. c #D06F30",
"]. c #C57735",
"[. c #E17E2B",
"{. c #825E47",
"}. c #83664C",
"|. c #90704D",
" X c #987948",
".X c #826A54",
"XX c #886D54",
"oX c #AB7443",
"OX c #806F64",
"+X c #827264",
"@X c #82766B",
"#X c #84796D",
"$X c #867D73",
"%X c #897E73",
"&X c #B98738",
"*X c #DC842D",
"=X c #CC8335",
"-X c #DA8637",
";X c #CA903C",
":X c #DB963C",
">X c #E48A2E",
",X c #E59B36",
"<X c #E39839",
"1X c #EAA93C",
"2X c #A68247",
"3X c #A88F57",
"4X c #8B8176",
"5X c #8D857C",
"6X c #91877C",
"7X c #A38E64",
"8X c #A5926C",
"9X c #C79347",
"0X c #DA9743",
"qX c #E29D43",
"wX c #DCA74B",
"eX c #D6B35D",
"rX c #E8AA48",
"tX c #EAB347",
"yX c #F1BB4A",
"uX c #EEB753",
"iX c #EAB856",
"pX c #D1B36C",
"aX c #EEC259",
"sX c #F5C95A",
"dX c #F2CF6F",
"fX c #FBE37E",
"gX c #948D84",
"hX c #F6E18C",
"jX c #FBF6B1",
/* pixels */
"s.) -.8.<.=.' p.L { O...>.-.-.:.p.[ =.J P -.X.[ #X&.) :.0.{ P L X.L a.4X{ &.8.P D v d X.i.d.@Xi.3.%.5.c 4.} 7.<.:.#.$.e.-.m H c ",
"#X,.-.>.-.{ s.F } L -.=.<.:.e.:.O.2.F -.%.=.{ s.%.;.%.#.7.L F ..-.L d.X.I ..%.J s v F o.u.t.s.@X;.J P x &.K %.~ K P #.t.-.} K 8 ",
"6X*.%.>.c a.{ d l m &.=.:.-.#.&.b -. .;.-.O.0.} P %.%.K :.-.F %.:.F d.P >.2...D D K { O.s.s.s.%X0.P &.8 i.K #.-.H } e.:.#.-.-.c ",
"%XJ #.) c y.} d m K *.:.3.-.P ~ n -. .L 1.y.K K P X.P G K X.L O.7.D d.{ t.O.;.O.D =.O.@.y.e.y.i.%.} -.c 5X>.<.#.K :.<.:.&.3.;.F ",
"i...F F p.} X.O.J K &.:.3.%.=.-.n 0.3.2.w.P &...%.:.X.&.*.H v P 7.D 5XD -.P K q.2.' J | a.y.a.4.:.-.e.c 6X*.>.;.%.*.P #.3.*.;.@X",
"J 5X4Xs...J { 9.J %.*.~ =.P ;.e.x gX#X3.X.} :.=.O.:.;.8.8.P K :.7.D s.v G G O.%.2.} [ 2.$X+Xa.OX0.:.3.c 5XL ;.e.:.:.K K P O.p.O.",
"F d.L %.L =.{ [ 2...P G K <.;.e.c gX%X-.n F J } %.3.:.8.8.v #.:.D %.J G m H K P F y.#Xa.$X$Xi.+X:. .*.8 gXD L  .} } } K b %.%.<.",
"F $XL K P %.X.} O.9.{ G d J X.%.' 5X%Xa.3.3.3.J %.:.7.7.5.{ L } =.P *.P X.l d K } :.:.&.=.3.e.t.p.+.#.D 6X=.;.+.2.2.:.=.-.e..Xt.",
"D a.L G ~ X.P ;.-.O.=.L m m  .O.p.9.3.0.:.:.e.=.O.&.r.<.=.J L q.:.%.) J G l J P :.t.e.:.=.{ r.7.=.q.+.q.u.i.+Xu.a.a.u.+Xr.XXXX0.",
"D u.P P ~ ;.;.7.X.{ { <.*.*.:.3.s.} O.-.}  .K }  . .&.*.} F 9.:.:.;.~ l l J :.&.>.r.e.:.} %.e.8.-.O.d.;.#.-.:.%.-.#.L 8.t.XXt.%.",
"n =.G X.*.%.0.7.X.{ } %.:.XX%.3.9.%.;.%.P G { :.7.2.=.v F -.%.%.;.:.P G m K ;.7.}.y.e.X.%.7.e.7.<.} p.{ =.;.3.=.-.:.O.e.8.*.~ =.",
"F F  .P %.m G *.=.[ L ;.-.:.;.y.;.:.0.{ } #.=.e.t.-.2.;.:.%.:.-.:.H H K G G ) 8.8.r.:.X.0.7.8.:.-.o.q.%. .O.:.=.;.%.=.e.e.*.>.-.",
"n D } O.L K J P -.[ { =.~ P I %.;.:.3.P } =.P e.7.P } e.t.o.L K %.P P L L ) K ,.8.t.2.=.e.:.t.;.} y.X.%.O.} :.-.;.%.%.:.:.r.&.K ",
"F ..L 3.X...%.) X.D L { J %.X.:.:.;.<.v L =.:.8.%.m m ~ P 0.O.H ~ } ~ } X.<.7.-.*.e.2.;.-.%.-.J F } G K %.} G } =.=.} %.%.7.8.K ",
"#.;.] ] ] ..{ ..{ { J d s d d d O.+.o.O.O.+.+.o.{ { { ..o...o.;.O.O.O.o.} { c d D d y y 6 a s l l m l l m [ { D d G J F { O.L K ",
"v F ] L { ] ....{ { J v s a G L +.+.+.+.O.+.+.o.o.o.] ..O.o.o.o.O.O.O.o...O.[ D d c i 7 i i a k M M M l n { { [ m d D d L +.2.D ",
"u.;.{ ..] { { { { { ] ' n F v } } ;.2.+.+.O.O.O.o.o.O.o.o.O.....o.o.o.{ F { n i y 8 ' n ' x a a l M m m b b [ { J [ } d n } ;.p.",
"i.3.O.O.o.....] ] [ ] { { { { [ } v ;.O.+.O.+.o.O.O.+.o.O.o.O.o.o...o.{ [ n J b y a { ] [ s s k d m J F n { { [ { [ | [ d L n { ",
"P F O.o...o...] ] [ [ { { | | m { X.;.O.X.O.o.o...O.O.....o.O.O.O...} o.{  .[ a 6 a { { [ n l s l m n v ] o.| | [ { | { G l ~ G ",
"G J { { { o...J L J F { { [ | K P O.+.;.P X.O.o.....} ..o.O.O.O.O.+.} } { { a 6 8 ' | [ b ' v d M n ' [ ] o.o.| { | | [ v s G l ",
"G J L ..O.+.O.O.{ D G L L L } ..P ..P =.=.o.J ....O.o.O.O.o.o.+.+.+.O.G v v a y 6 ' | [ b n d s b [ ' ' { | @.] ] o.L F G J K G ",
"L L ..o.O.;.+.O.{ [ J L { { { ......I O.I ..J D G L ..o.O.O.O.+.+.O.{ J d a y 6 6 a |  .n F n n ' [ { { { { ] | ] } J [ { o.L } ",
"L X.o.o.o.O.+.o.o.o.| | K [ o.| O.O.O.L s G ..L L G F { O.O.O.o.O.{ L v s s 6 6 6 7  .| ] ] { ] [ { | { ] ] { ] ] d b { } | L K ",
") w.O.o.O.o.O...O.O.o.{ { { o.O.o.O.o.o.K H o.o...} D { O.+.o.} ..L m s v l y 6 6 d | | | { { { { | | { { { ] ] n n ] { ] ] K H ",
"%.q.o.O.o...{ O.;.O.o...{ o.o.{ ..O.O.O.o.O.o.O.O.[ D 7 F +.[ d [ F c v s s y y a n  .O.} o.| ] { ......] { ] ] c c v [ ] [ n -.",
"L p.o.O.o.[ o.O.+.O.o.o...o...{ { O.O.o.{ o.O.O.@.O.} x ] +...i d F i i s s s y a J { O.| o.o.] { ..{ L { ' ' F c n v F [ F =.L ",
"q.u.O.+.O.O.O.O.O.........o.J J ..O.O...o.o.o.o.+.O.o.[ } } } y i J F F [ b b d s s v { { L } { c D c D [ L D a d a l k d d a.4.",
"+.w.+.+.O.+.O.O.o.{ { ..o.F S D ..o.....] ..o.o.O.O.O.O.O.m [ x 7 a n } { G F m p a p v b n F c i n D { o...F i i i d v v d *.-.",
"{ p.O.=.%.%.=.O.o...{ o.o.J d d F { ..] o...] o.O.O...} -.%.J 6 y s s [ | n v l k s s d i y F s a F F } O...[ d a c y s d m 4.-.",
"8.} ..&.C.I.,.=.o.......L D F L d L ..{ ....{ ] ..O.n z V l l b m p d [ n J M M d s s y y i d n D ] } { ..} } ' n D G s d n e.r.",
"r.G ;.I.Q.-XK.*.o.o.......D J L ......X.L ..o...o.O.W G.U.N V  .[ n n } l K K M M l l s s v n D D { F ..{ n n J F n a a L { 4.r.",
"*.G s.pX<X(.U.6.+.o.....J s d J L I Z.oXP.X...{ { o.( n.C.z m | | { [ [ [ } ! ! ! ! M l d G { { { ] L [ } v l n G n n l ~ K &.8.",
"~ X.3XtX1XtXU.6.+.o.....] J [ [ } ` ].0X9X*.{ { |  .$.A Z x x | | | | | | [ ! ^ ! ! ! M M d { } o.{ { { { J l L { { { _ A.Z.7.8.",
":.2.9X,X1X1XL.D D 5 D P S s n 7 c T _.~.W.` 5 x x 8 m B h.k a a 8 8 8 8 n B B f k 6 k d 3 6 a a 8 c 8 8 v s 6 i x 5 S T.H.D.t..X",
"-.X.eX1X<XwXw x x # ) Y.=XV.Q = i oXrX:X0XY X a x O i V V b b 1 O 6 - & ( W C.N.V O i K @ 6 #.y 9 M 4 - ) K @ l G . p T.~.U.}.0.",
"} =.].E._.eX< S c $ 3XaX:X:X_ = 0 |.eXrX=XB   a x % k V B b a 2 O 8 - & ^ M z A.U O i K @ 6 ) C M.n.p , ) H @ D G . 0 / t T ` 5.",
";.0.G.S.Q.0X7 a s & 2XaXdX9X}.& 0 {. XI.Z.d . 7 x ; m.A k m z 2 @ i - & ^ M 9 m v X y K @ y ^ b.b.V f 9 ( W $ S G   3 l * 1 ) %.",
":.%.n.m.v.).7 a a # L.aXtXiX X, 3 ^ S 1 M y . a a ; F.Z B z A 2 @ b , * W z * 6 6 X y K @ 6 ^ g Z B 0 q G.T.w S G . s E & , } 2.",
"X.4.C.m.c.).> a x + P.aXaXaX7X5 i ,.H # #.m X y s : F.F.l.j.N.3 @ b , 9 j.A N y 5 . i K @ 6 #.6 - ! y f./.,X=XQ G X E ,.1 1 a.;.",
"X.;.z Z z.B.o a a + P.tXaXdX8X4 i 6.S # K b X y y : F.(.^.^.A.1 @ d , r ^.Q.S.f 5   i K @ 7 ~ 4 & P u x.>XtX1XR H X B ,.1 6 ;.y.",
"u.X.d ; E d . a x & 7XjXjXjX8X4 i ,.) w ^ v . 6 6 ; g.(.(.^._ 1 @ a , e '.H.l.u 4   a E ; p ~ 4 # K r /.>XfXrXB.H X E ,.; 1 .X-.",
" .y.b = H s   a a & 3X1XqXhX8X4 u }.Y.v.m.B X 5 7 @ C ~.).n.` 1 @ i , q D.D.N.u 5 . p B.S.h.W 6 # G n./.<XfXrXn.G X z ,.3 j r.i.",
"%.F 8 % l a   s d > 2X-X).).|.> 3 P.W.k.j.Z.+ 6 8 @ a Q < i K , @ d 1 e G.j.N.f 5 . z `.R.H.h.6 & P T.qXdXsXuXm.m X s ! S Y.<.:.",
"%.G 2 @ K s   a d ; Y._._.*XR @ , 6.J.j.l.T.$ i i @ s P & 1 H , - ~ a f.J.Z C j a . W F.F.R.m.y & P G.yXsXaXtXn.H X d P B.<XK K ",
"%.O.C * K l . i a ; T.qX*X*X/ + 1 ` D.S.D.K.; i i @ x #.# 1 K - 1 ~ B l.j.b.N.V a . B F.!.!.S.p & K L.sXyX,XrXP.m . c &.L.1X) =.",
"P { z.* H d . a a > U.-X_._.Y @ , #.S.Q.l.Z 0 s d @ m &.# , K - , ~ B k.b.b.k.n.c . S H.(.*X0Xj # K L.aX>X*X<XZ.H X b ^ T.-Xr.%.",
"J d.x.; S s   i i < v.^.[.W.V @ , P C.^.H.S.B g f % v $.# 4 ! 1 1 ~ z k.M.m.`.B.d . h D.!.[.'.Q @ K C yX,X*X~.R K X v $.M.].t.0.",
"s.%.S.< G s   a i < =X,X>Xv.k @ * P k D.S.C A B V ; v #.# 1 M y 2 ! p j.W.H.W.C.c X S U.!.^.).j # P w ;X:X*XU.Y v . c ( J.'.e.J ",
"0.X.D.e ! S . i 8 $ &XhXqXx.h @ @ 8 > < n.B f N.N.9 4 d . y T A N V 4 q U.Q.G.^ ! @ H T.^._.9Xy + d 1 _ eXY.Y p a   i Q J.!.=.L ",
"s.P l.T ) K X 7 8 + Y &XpXr s @ @ 8 , @ W B n.`.J.9 1 c . u V.M.M.T 2 & _ T 0 M E % H Z.V.G._ * O 7 > & z h + 6 7   i S f.H.X...",
"d.F f.V.I L D F F D J ) 5.F D 8 c c c c J U T.v.B.l d v y d C.j.h.g b a n n c c n 5 a l h h x 5 1 7 7 1 a a y s 7 3 a s f T J O.",
"$XD J.|.I ..O.o.O.o.O.O.+.O.....o.o.o.O...o.*.>.%.{ J m l s s z f x b L | [ { F c i D s s s a n y 7 7 7 s l l x a s s i i s #X4X",
"O.p. X5.} X.O.O.O...O.+.O.O.O.o...O.O.O.o.+.+.O. .} { J n b x p a y 6 J  .{ { { d n [ b y n y x c y i b b m M p y a s s i a *.<.",
"=.o.X.L X.X.....o.o.O.o...............O.+.o...o.] { [ F s y y a a 6 y 6 { n n n n b F a 8 x 5 y y y i n d a s s y y a s i y :.r.",
"=...D F L L J J L L L L F F F F D D J J L L L L F F D d s s x b d s x x v x a v v n n c b x x d b a a c b n d m d a d a m d r.r.",
"=...=.0.0.w.9.9.0.9.9.0.9.5.w.9.+.9.9.5.0.w.q.u.w.9.;.P m K M | } K n K ;.n m } } 1.O.@.=.#.[ } K v [ P m [ M n m v v m K K -.XX",
"O.L 2.9.q.q.q.q.w.9.0.w.w.w.u.w.0.q.w.p.w.w.w.w.3.p.3.[ m M m =.%.J m n 1.J J 1.%.%.[  .1. .1.m m m [ } K [ n v d v m m [ m .Xt.",
"D d.9.9.9.9.9.0.9.9.w.u.w.w.w.w.q.0.w.u.u.w.w.w.p.p.3.%.#.M [ %.J b J J #.} K  .[ n m b J }  .m m m #.=.[  .%.K d m m m M M .X.X",
"p.} 2.2.9.0.2.9.w.9.w.w.w.w.w.u.w.w.w.q.w.w.w.;.q.3.2.%. .1. .3.}  .2.2.2. .} [ m | n b } 1.[ m m n | [ 1.1. .K K #.m K m m c n ",
"{ G +.+.+.+.;.+.+.9.9.w.0.w.w.w.u.9.2.;.=.0.q.5.2.1.}  .} #. .3.1.1.1.1.1.m m } l n K m J  .K  .}  . .@. .%.L H K M m n K m s.gX",
"J J c c c c D c D D F D F F F L F F F D F G F n n n d c x m x n b c n x x x b x b a c x c n c b n b c c a c x n m m b v b b J OX",
"L K X.) %.L { @.@.D c D L I ..u.=.:.-.&.X.=.P L K m } #X$X$X5X5X;.L &.:.-.=.<.-.[ J  .+.@X%Xe.#X3.=.4.4.F 2.a.:.<.4.e.4.4.}.n i.",
"} d %.&.H { 1.] 9.d.+.L 8 8 F w.X.:.3.-.X.=.:.;.J J ;.:.;.;.3.-.y.{ #.>.} *.}.:.' J =. .p.$Xa.#X0.#.<.[ 2.y.4.r.4..Xy.:.4.&.m 3.",
"#X~ %.&.%.%.L o.p.;.*.;.4X#X4X4X{ :.3.:.;.;.=.} ' 3.%.e.;.}  .[ [ y.F n K }.r.4.[ J [ n 4.%X@Xe.p.-.4.b #XL 4.r.e.3.:.-.&.#.-.c "
};
