/* XPM */
static char *_65163eaa54e473eda90c58c76bfbd20yAwRTq2SUkaTRHWM[] = {
/* columns rows colors chars-per-pixel */
"64 64 159 2 ",
"   c #070604",
".  c #080705",
"X  c #0B0907",
"o  c #0D0C0A",
"O  c #110E0C",
"+  c #14110E",
"@  c #0C0E12",
"#  c #0E1114",
"$  c #0F141A",
"%  c #141413",
"&  c #191613",
"*  c #171817",
"=  c #1C1916",
"-  c #13161A",
";  c #181718",
":  c #16191D",
">  c #1C1B1B",
",  c #211C17",
"<  c #221E1A",
"1  c #1F201F",
"2  c #24211D",
"3  c #29231E",
"4  c #151B21",
"5  c #1B1E22",
"6  c #1E2124",
"7  c #1E242A",
"8  c #242424",
"9  c #2B2620",
"0  c #2A2622",
"q  c #2D2621",
"w  c #2F2721",
"e  c #282524",
"r  c #282624",
"t  c #272827",
"y  c #2E2823",
"u  c #2B2825",
"i  c #2C2926",
"p  c #232629",
"a  c #26292B",
"s  c #2B2B29",
"d  c #2B2A2A",
"f  c #2B2B2B",
"g  c #2C2B2B",
"h  c #2E2D2B",
"j  c #292A2C",
"k  c #292B2F",
"l  c #2C2D2C",
"z  c #2C2C2E",
"x  c #312A24",
"c  c #322B25",
"v  c #322C26",
"b  c #352D26",
"n  c #312E2B",
"m  c #372F28",
"M  c #302F2F",
"N  c #2F302F",
"B  c #33312E",
"V  c #39312B",
"C  c #3A312A",
"Z  c #3A322B",
"A  c #3C332C",
"S  c #3D342D",
"D  c #262B31",
"F  c #2C2E31",
"G  c #2E3032",
"H  c #2E3033",
"J  c #323230",
"K  c #323232",
"L  c #343433",
"P  c #333335",
"I  c #333435",
"U  c #353535",
"Y  c #343637",
"T  c #373737",
"R  c #393633",
"E  c #373837",
"W  c #3A3936",
"Q  c #3C3836",
"!  c #343539",
"~  c #353639",
"^  c #36393B",
"/  c #3A3B3A",
"(  c #3C3C3B",
")  c #383B3E",
"_  c #413E3C",
"`  c #403F3E",
"'  c #43413E",
"]  c #3D3E41",
"[  c #403F40",
"{  c #3F4040",
"}  c #3F4041",
"|  c #414141",
" . c #434343",
".. c #404345",
"X. c #444546",
"o. c #474747",
"O. c #494643",
"+. c #474847",
"@. c #4B4946",
"#. c #454649",
"$. c #474849",
"%. c #47494B",
"&. c #494A4A",
"*. c #4B4B4B",
"=. c #4B4D4E",
"-. c #4F4E4E",
";. c #504A46",
":. c #514E4C",
">. c #50504D",
",. c #51504F",
"<. c #52514E",
"1. c #4D4E51",
"2. c #4F4F50",
"3. c #4F5052",
"4. c #515253",
"5. c #535454",
"6. c #545454",
"7. c #565655",
"8. c #565757",
"9. c #595755",
"0. c #5A5956",
"q. c #565658",
"w. c #56595A",
"e. c #5B5A5A",
"r. c #5B5B5B",
"t. c #615E5B",
"y. c #63615F",
"u. c #5D5E61",
"i. c #5F6062",
"p. c #636363",
"a. c #6B6966",
"s. c #666769",
"d. c #67686B",
"f. c #6B6B6B",
"g. c #726F6C",
"h. c #6F706F",
"j. c #73716E",
"k. c #6E6F70",
"l. c #6F7072",
"z. c #737373",
"x. c #7A7774",
"c. c #7A7977",
"v. c #767778",
"b. c #777879",
"n. c #7C7C7C",
"m. c #807F7C",
"M. c #83817E",
"N. c #7F8081",
"B. c #848483",
"V. c #898684",
"C. c #8A8886",
"Z. c #878889",
"A. c #8C8B8A",
"S. c #918F8D",
"D. c #8C8D90",
"F. c #959596",
"G. c #9B9B9A",
"H. c #A09F9D",
"J. c #9C9DA0",
/* pixels */
"*   % b C , O O X X O 8 :.K % % < 3 3 < < , & & , & + & & % & & & & & ; } $.*.! 2 % : : n K % # o o O & = 2 3 2 , = & + 2 = ; % ",
"8 o o < C = O O o X % < r O & 3 x c 3 , & + & % + o o & > % + % > > > ; w.r.-.} u * > * * 8 > # % @ o % + + % & & & O + 5 > = % ",
"@ 8   O w , O O O X X o + < x C c < & O O & # > * = % z X.R j s 8 r > ; s -.2.! 8 t * - % - # # & % @ p 6 % + o O + O O % 8 = * ",
"o % . X + & + O O O + , 3 m S x & O O @ % > @ % % h ^ U &.9.X._ n < r 2 > s | I 8 h 6 ; : - 4 - ; & @ : - : * o     X O O % & + ",
"o   o o + + + O + & = 3 m C 3 + O @ @ % : # # < 9 / ] M U 1.*.6.n > n g 8 h 1.4.^ $.H a K D ^ ^ j 6 5 4 4 * > % o   X o O & + O ",
"O % 1 r 8 * % + & < < x c , O % @ # , 5 5 r 4 5 C R R C U O.:.e.q..._ H F / 8.p.w.5.,._  .w.] } X.1.] D 7 9 < ; > o X o o % % O ",
": : u N 6 % = , = 2 2 w < o o ; 4 4 r 5 5 5 z 6 u R _ C | 9.,.t.f.b.8./ H 1.u.s.w.w.} ^ D l.] ] j *.#.H 7 6 2 = - > X . X o % 2 ",
"j z p p > < 9 2 < < < & + o ; 8 j p 4 4 5 p 5 a n C R R _ 0.p.m.n.n.8.} ] u.n.k.f.5.) p 6 &.h r & O = h D p 6 2 ; : %   X o 8 - ",
"a D p 1 & 2 i 2 , , & + O * > u I 7 4 a a H ! p r z / | @.,.y.a.p.t.-.@.' :.c.B.B.r.U 2 & + = > = * % O 8 t r , % - - > = * : * ",
"p a H s , 2 3 , = = o O ; # % * a 7 7 F F ) } I / ( | O.@.@.t.y.t.t.r.O.O.:.f.n.c.9./ < = % & , 2 r = + % > < 8 o - > N 6 % : 6 ",
"H ^ } 8 = 2 = = , % + U ; $ > & 7 7 D H $.#.=.w.r.p.-./ _ ;.9.0.t.t.p.&. .:.9.p.y.8.X.n t > 2 = = 2 2 & & = = 2 + * N a 8 $ * t ",
"F ! s r , = % % & O K 8 $ : 2 8 a 7 D ..q.3.i.d.F.f.8._ ' @.:.-.:.r.u.4.( _ -.r.r.-.4.4.^ p 6 > = * = , & & & & o + ; * 1 : ; p ",
"K U W h u & + o   - : # - : B _ l 6 a ( 4.-.-. .X.&. ./ Q ' _ ( O.&.9.-./ P U ] *.&.$.3.B t 2 = = O % & & & % X o o * % 8 * + 3 ",
"h K _ n r % % o # # # : : 6 E L p 7 ^ } X. .:.&./ | ( n i n C B R @.X./ W B s r z U E u 2 2 = = & O % % % : % . o > l * % o o > ",
"h / ' ! N * > - @ # $ : : 7 H 6 4 I r./ n / @.X./ U i = , n w n C ..' / P H 9 = 3 W B 3 2 , 1 9 * % % = * % % @ o 8 l p = X o = ",
"F ( #.! N > 6 $ $ $ 4 4 6 z H 6 6 3.X.u 8 9 B B z 2 = 2 2 i R R n P R / r = % > 8 i 9 2 = & & = * # % : - % % % @ 8 p 6 ; o o 8 ",
"! / #.H 3 6 t : p 6 6 4 5 5 4 4 5 9 z B i h 8 2 r 2 = 2 y 9 W _ i 2 8 u % + & + > r 2 = % o O 1 8 - - - 2 9 9 * @ 5 > % : # % s ",
"P ' $.F 3 6 H - r a 4 4 4 4 5 8 % z R ( C 3 i 2 3 r 2 , 3 i s u 6 * * 6 * % * * 2 u < = + o 8 @ % 6 5 r C C b < % : : : 5 # : 8 ",
"a F ] K c * * X o < 5 5 4 7 6 & w u R W B y z 3 r 2 2 2 = 3 s r & = > - o * > + * < % + o = - > 7 7 7 r < c b r 4 4 > 5 j 5 : p ",
"p P ! a 3 & + o O % 5 6 : ; + 3 W _ C n c i c i 9 9 3 , 2 = 2 8 l j 2 > X - % + + & o o o ; : 6 7 D 7 : : 8 C n 5 r 3 : 8 + O < ",
"* r t , 3 = O o , & & + o O , n Q Q Q R B C W B W R h 2 u 9 2 6 u < % +   X o X O & > @ @ 8 p F F j 4 r 4 6 b s p w < + o X o o ",
"O + = = 2 = o o < w + + O & < r C U A n B E +.5.p.r.' B I ^ u = * * + X o X o   + / % # : 7 D H F 5 : B 8 1 9 j r 3 < + O X o O ",
"r a z s 3 = O X , m , + + 9 3 9 9 B n R / w.5.p.f.d.i.} -.| N * o % * % > o X - z : - : 6 7 a 6 5 - o O > & < < 2 2 = + o . % r ",
"7 : c C x , + O & x < , = < 3 < 9 u h h | w.f.v.p.f.l.=.@.$./ % o > t 8 > % X - - $ 5 F H 6 5 : % o o o O & < , 2 2 = o . % / ! ",
"6 5 s c 3 , & # O & < 3 < < 2 > = l B / 1.d.Z.z.r.p.d.p.r.I a % * H E H > * X % - 5 a ^ K 4 U U . 1 & O & + , , 2 2 % X % r u 8 ",
"& & r 9 , , , & + O & , < < < 9 z W 2.( $.r.z.p.0.u.p.r.} z * > * * $.h * - % : r a j j 8 * u & + :.R & , , + & 2 = % o % % O % ",
"% & % < < 3 = 5 t # % & & u 8 P *.p.f.&.| &.r.r.r.i.p.i.@.U t 6 ; 8 H K h * : * h s p 8 % + , O o & & = 2 , & , = & O 2 O o O % ",
", , = 2 2 , & > s < > & > s _ X.w.y.p.5.&.=.n.p.p.r.8.s.-./ ^ 6 ; > 6 * j p 5 % > 8 * + + , , + O + & , 2 2 , & & O o = O o + & ",
", 2 2 2 = , = l g 9 ] I P ! | 1.r.p.d.8.w.p.l.p.r.5.&.e.X._ } 8 * + & & % t h % + + + & , , = + + & 2 2 3 2 , + O X o O o o % = ",
"w i w 2 , = r ^ / 8 / $./ %.1.1.s.n.w.s.N.G.C.f.r.,.@.| | 8.4.r + O O X X > a o + + , 9 3 3 , 2 2 2 2 2 , 2 , + o X > - o O = 8 ",
"l r r l t t I ! } / ^ } } $.1.1.r.p.i.v.F.F.A.c.p.@.@.-.r.y.X.s % X o o o o o O = 1 3 b 3 2 , 2 , 3 , = = & & + + 6 r _ > > 8 s ",
"K B E U s r t I P 1.1.#.w.u.w.r.r.p.n.n.B.B.A.f.r.-.X.8.r.8._ r % X X X X O O O & = y 3 , = & = , = = + + + + o 6 a B L E H L L ",
"X./ ' &.U 8 % K } ] 1.u.z.z.z.p.s.z.C.M.g.a.j.r.-.( ^ ' U z a 1 % # o X X o o o O % = = = = = % % + + o o o o   ; 8 K [ &./ / | ",
"] U H / ! z > r ] u.u.d.n.B.n.z.h.n.N.c.a.y.a.5.@.E t 2 > > 8 a t O o o X o X X o O = & + * > o % + o +   o X X % % 8 P X.P H H ",
"I ] / ] } a K B } d.s.k.D.F.Z.v.c.n.c.c.n.n.z.B.$.N 1 # + * 8 l U : o o o X o X X o % & o o > % o 6 8 8 W s > X o o > 8 p p p a ",
"X.p.( ( B U  .8.u.i.p.n.F.J.C.B.M.c.C.G.G.A.B.r.&.a * O o O + ; K ; @ > & o O X o o O o X o h t 8 t r 8 z _ P % O o % 5 a a F F ",
"X.( _ &._ @.9.r.i.u.u.v.A.F.C.M.c.j.A.G.H.B.f.=.X.N r z t r 8 u / j % ; + & & % * X   .   % X./ > : ; j F / ! h , # % p B F j ] ",
"1.=. .@.@.4.y.e.5.*.8.s.c.M.v.z.a.a.M.F.G.n.p.s.t.X.) ) U 6 : > r t j 8 > U ! #.p % . .   o 5 8 5 - 4 j F / / ^ P 5 % & 8 F ^ 1.",
"' ,.9.:.w.f.f.f.r.8.*.4.y.y.a.j.j.x.M.C.B.z.r.l.p.$.X.} ) B 6 > 8 r n K U &.h r 8 * X . . . ; 4 5 : p K I  .X.} ! n > * 2 ! #.8.",
"O.:.9.8.u.s.k.s.r.X.U U ;.;.y.x.M.A.S.x.z.p.4.&.] / / } / _ _ U P h s 8 X./ P % & # .   . o ; : : p 8.U z ( @.X.U s > 8 n ..:.9.",
":.0.0.,.e.d.d.d.&./ U n _ O.t.x.M.V.B.v.d.q.4.} F P / ] C.B._ 1.-.( 7 8 5 8 + O o o % * o : > 8 > t r & 6 8 n | ( ..h h ( O.@.:.",
":.t.9.' ,.f.u.X./ / _ O.;.O.:.y.x.x.d.k.i.s.5.&.s E 5.} z.B.X.^ K | F a 6 6 6 > ; 1 * O o @ > % * * & = < ; 9 U / :.z [ *.O.;._ ",
"O.,.,. .X.8.r.U _ | _ _ ;.O.&.@.y.s.r.q.u.r.-.P > * 8 > h N N K 2 < < 8 z U h 6 p a 8 ; o o o o + & = * 2 8 u I T / #.#.e.9.@._ ",
"@.@._ R | &.X.| @.;._ O.t.t.;.X.&.:.q.3.1.*.X.U P 2 9 = 1 u t u 9 z K 8 K / ] t l F 5 6 ;   X X + + % = u U U z U T / ] r.p.:._ ",
"X.( U M W } / X.;.;.:.:.l.u.$.} #.#.1.1.1.#.] ! W U 3 2 9 i n / ^ ^ ( u s L s s p p 6 5 > * o     o + * 8 K ! / / ] / U | ] ( -.",
"&.#.| U h | / @.6.9.a.p.%.1.1.q.1.1.1.1.} } ! P _ K 8 H B z / :.@./ / 1 r N h > % 1 5 : < 5 > r U + o o > > K _ [ |  .#.*.8 p / ",
"( / U / ( &.0.4.r.t.z.3.] 1.5.r.u.w.8.=.h r h 8 n C / / / K K ' @.' U r 2 s N > % U 5 9 8 8 r 9 r 1 O o o o a #.../ (  ./ z 8 K ",
"| ! g s X.&.y.0.8.w.w.../ | #.r.i.r.&.W h n i r h _ 4.&.| / U K / ,.' K h p s 1 > / B h h g h h r - - % O % U [ n a F / U h r ( ",
"0...P s K X.s.l.z.f.-./ ..| U | &.*.O.Q u n n s n / [ 1.| T X.] ` =.+.=.N 6 ^ 3.- l P K l L l r t % # F r K 8 : r : 5 ) P z F | ",
"f.q.&.] | &.4.r.r.u.X.U W ! K n n n K B n n B n F ( 1.:.) / O./ ^ h K / ' > N r.> N / H s s t 6 L r # # 5 I 6 - : - - > 8 U | q.",
"u.1.*.1.O./ #.] ! w./ z B U z L R 9 r r i c B s U 8...P p ! / p > 6 6 t I - & 1 % z H j 8 : : - 6 > * @ # 4 : 4 4 : - 9 c C  .e.",
"r.*./ P B ! U a j 4.1.I B K y n K s w i 2 > < % P ..F > 4 a n 6 - > 6 6 * + % * % > 6 : : : : - $ $ $ $ $ # - 4 5 4 - 8 W ' *.8.",
"q.1.P p a r 8 8 K -.-.E W / W h z U Q M 1 o o % 5 ! p 4 - 4 5 2 6 p 5 % + * * O & o : 6 4 3 y 3 2 $ 4 $ $ 4 4 5 4 5 p p _ O.:.*.",
" .F p 6 5 5 r c R ( / / X.X.| ' | ( :.O./ a : - 5 7 5 4 4 p 6 r n u , % > 1 % # > + - 6 4 : y b B 5 $ : $ 4 5 7 4 7 &.l C W O.| ",
"P K K p 4 5 9 i R Q ' V / } | | 1.8.l.w.] j p 4 5 7 5 4 p X.F p B u 3 r a E 6 ; > O O = 6 : : 2 x 3 5 4 4 4 4 p H 4.w.r n K _ _ ",
"5 & h p 4 - 5 5 n _ R C n c 3 n X.w.u.u.#.F 7 6 5 5 4 p _ ( F 8 y u 2 8 N B a 6 % + + 6 : : 6 2 > > j p 4 4 6 7 4.z.l , c n n U ",
"o 2 r 6 4 > p 5 r n n C C _ b b ' ,.0.w.X.U 7 6 6 4 p @.) a 8 & 2 3 = 7 B U &.r + + 1 3 & & 2 u.6 6 ^ j - p a : ! H & = 3 3 & % ",
"+ x & ; 4 s N 8 6 8 8 3 3 b b m Q *.X./ H F 6 5 4 6  .,.a 2 & , 2 < 1 N z H L * O + = b 2 O O = * O s 7 $ 1 t 1 8 & & 2 3 , O X ",
"o 2 & O % ( n.h - p 5 > % , w w B / N p p a 7 4 : 6 / 6 = + + & 3 2 & H p * % o O o + b 3 + o + & & O * - 6 u = 2 = 2 3 2 & % % ",
"o o % + o o z 6 # - B 8 = % , x L H H ] 4.X.a 7 6 t 2 + 2 = + & 3 = N H 6 > r = o o + 2 y 3 = & = * + % % * = + > 3 3 3 2 % > # ",
"X + & + + O * : o - U = r # o % > I / ( E l r 3 = + & = 2 + = & 2 + X./ 6 H ] a + o O = 3 3 2 2 1 = + + o o + + = 2 3 3 , + = O ",
"X = , = + O % % o o o   o o + + a h = & & = = & = 1 2 2 2 & 2 , & 1 E &.H } ^ p O o o & 2 3 3 3 2 2 , 2 & & & = & = 3 3 2 O X X ",
"o & 2 b , O o o X   + o O O = ( L & + = 1 2 2 3 , , 2 , , 2 , 2 = B 5.} D #.^ 8 * %   o & 2 2 3 3 3 x 3 3 2 = = 2 2 = 2 2 + X X ",
"X o , C x + O X o o o o , K 6 r & + < 2 2 = 3 3 3 = , , , = = = & + t ^ H #.} 8 3 1 1 o X o + + & , 3 x x 3 3 2 2 2 2 & = & # o "
};
