/* XPM */
static char *ddcb89394def45f7fe5a93356e2f2c70yKwl3Ct9pkMxJWaz[] = {
/* columns rows colors chars-per-pixel */
"64 64 139 2 ",
"   c #060503",
".  c #080705",
"X  c #070805",
"o  c #0B0A06",
"O  c #0E0E09",
"+  c #100D07",
"@  c #110F0A",
"#  c #0F100C",
"$  c #14130D",
"%  c #19160E",
"&  c #1B180F",
"*  c #0E1515",
"=  c #151611",
"-  c #191710",
";  c #161913",
":  c #1B1B13",
">  c #161C19",
",  c #1C1E19",
"<  c #211E14",
"1  c #201F18",
"2  c #1F2016",
"3  c #1E211B",
"4  c #242116",
"5  c #282317",
"6  c #23241B",
"7  c #29251A",
"8  c #27291F",
"9  c #2B291D",
"0  c #302C1E",
"q  c #1D2320",
"w  c #1F2825",
"e  c #232620",
"r  c #262A22",
"t  c #2B2C21",
"y  c #2A2C22",
"u  c #2A2C23",
"i  c #2B2E23",
"p  c #2C2C23",
"a  c #2A2D26",
"s  c #2D2E25",
"d  c #2F2F27",
"f  c #232E29",
"g  c #302F24",
"h  c #2D3127",
"j  c #2E3126",
"k  c #273028",
"l  c #2D3229",
"z  c #313125",
"x  c #303127",
"c  c #313326",
"v  c #333527",
"b  c #353927",
"n  c #303129",
"m  c #313229",
"M  c #323428",
"N  c #32342A",
"B  c #32352A",
"V  c #34372B",
"C  c #35372C",
"Z  c #38372B",
"A  c #35392C",
"S  c #36392D",
"D  c #34392E",
"F  c #36392F",
"G  c #393B2F",
"H  c #393C2E",
"J  c #353A30",
"K  c #363C30",
"L  c #393B31",
"P  c #393D30",
"I  c #3C3E32",
"U  c #3D3F34",
"Y  c #3E402F",
"T  c #3F4333",
"R  c #3B4036",
"E  c #3E4134",
"W  c #3F4035",
"Q  c #3D4339",
"!  c #42442E",
"~  c #515525",
"^  c #404235",
"/  c #404236",
"(  c #414435",
")  c #444937",
"_  c #464937",
"`  c #43453A",
"'  c #43463A",
"]  c #44453A",
"[  c #44493C",
"{  c #484B3A",
"}  c #494D3D",
"|  c #4D503E",
" . c #51553F",
".. c #4A4D41",
"X. c #4D5140",
"o. c #4D5143",
"O. c #505344",
"+. c #515446",
"@. c #545946",
"#. c #585B47",
"$. c #54574A",
"%. c #54564B",
"&. c #565B4B",
"*. c #5A5E4C",
"=. c #5D5F53",
"-. c #5F624D",
";. c #5C614E",
":. c #5D6252",
">. c #5F6252",
",. c #5F6255",
"<. c #60634D",
"1. c #606353",
"2. c #616653",
"3. c #656856",
"4. c #646956",
"5. c #686E57",
"6. c #666C5B",
"7. c #66695D",
"8. c #696C5D",
"9. c #6B705C",
"0. c #6A6E62",
"q. c #6E7262",
"w. c #717564",
"e. c #747666",
"r. c #767964",
"t. c #767C66",
"y. c #767A6C",
"u. c #7A7E6D",
"i. c #7C816D",
"p. c #7F8273",
"a. c #86897C",
"s. c #98A07E",
"d. c #888B80",
"f. c #8D9082",
"g. c #939685",
"h. c #969C88",
"j. c #A5A79D",
"k. c #A7AA9F",
"l. c #BEBEB8",
/* pixels */
"% % < , $ $ 7 4 : : $ 6 4 4 6 5 < 4 5 5 1 < < % < 0 9 @ ; : % : 4 6 6 < C e : , l e l 6 y T 7 z 7 u 7 $ $ , , s 6 s 1 & % = - : ",
"$ $ < , - - $ : : 7 = 2 % < & < < % 1 < < : < + < % @ $ 2 V % + $ $ @ o = @ - @ N 6 T %.[ K <.[ [ ( o.' $ y 4 y : 6 ; % 9 < @ : ",
"8 6 < : 4 2 - & < 6 - 4 & 2 $ : < - % ; < : < % 5 V 8 $ r p 9 z ] ( ^ $ @ $ : , 6 $ 4 $ $ 9 m v s 8 y s 3 $ - m N s : : y G U z ",
"3 6 - 7 3 3 : < < - : 4 % 4 $ 4 < @ : - < < < % y ] U , F F P +.7.1.0.6 : p s C T 3 y h y [ 1.3.>.| e.r.s O $ 6 = : ; ; < G U 6 ",
": - - : = - $ < < ; = 5 & & $ < < % & < < < < % 4 y y 3 e y g p n y n y l p : , : : p y l L g e y z m Z ' h g ; 1 : ; 3 e 6 : : ",
"$ 4 - 2 s $ $ 4 < , 4 4 & < $ : < < & - < < < % : : - $ ; - ; @ $ - $ $ $ : 6 , V % $ & : } u.w.*.3.y.e.6 6 U N m V 6 r 4 : : % ",
"6 o # $ $ O O : 7 5 5 7 % & @ : < & % @ < 7 < % 4 % + $ % % @ + + @ @ $ $ - , : - , = - 6 T y r $ y } U G ; @ 3 6 6 4 : 9 , : l ",
": o $ $ = O $ < & % % % % : $ % & & ; % & & % < < % < $ % : < < < ; $ = O @ @ O O @ $ - - < 4 < $ 6 s y r $ $ % = $ = - 4 % : : ",
"F @ $ : = O : ; $ $ $ - $ : % % $ $ = - : : : : : : 2 # $ $ & > : , : $ $ O o o o + @ $ $ h z H G ] =.=.....T j L e $ 5 s $ , 7 ",
"= ; = : , 4 $ : : - = : O - - - - # $ 2 % ; $ $ = - - o : 4 $ 3 , 1 6 1 Y & ; : % ; $ % % [ ;.;.1.8.q.q.,...} %.*.+.: 6 L = 6 9 ",
"s o = , , < ; : : : ; = $ : ; - : = $ 2 - < : = $ = $ o $ r 8 6 : : 6 6 | 4 & , 3 $ @ $ , 7 6 6 9 p 9 , 6 , : 6 4 6 : , 6 , - l ",
"h , + o , N = , 3 : ; O # 2 : : $ $ $ $ ; ; = $ - ; * $ = y y F r , y 6 [ l r r h 6 = 2 9 9 8 9 y 9 % $ , : $ : , : $ $ , 6 $ V ",
"@ o g ..: g > q q > 3 = # , : 7 ; $ @ # = y 3 > ; $ = = : 8 : u 6 $ F N F A F y V 6 > : , 3 6 2 4 6 < $ , 9 $ % : : : : : : % $ ",
"^ O o 4 y $ = : ; ; ; > = : - $ # $ $ $ 8 6 # # # # X X : y 8 $ $ $ r 8 p $ $ $ $ $ # - : % % = : : ; & & 9 ; $ # # $ $ $ $ 4 F ",
"u.u ; ; , ; = < : - & - ; : 2 h 2 # $ 3 3 8 = - - - # o 9 T H V 6 = # 8 A h h 3 : o o $ : 8 : % 6 5 ; : : : : 2 : O $ : & $ = A ",
"F l q q , ; , < 5 6 5 5 , : 3 y 3 = = 2 8 8 w ; = = # # 4 b h z 3 = - r v 8 8 2 3 % o $ : 8 : : p g $ 6 y - 6 6 8 # $ 2 2 # 2 F ",
", ; ; , 4 ; : : < < 5 < & : ; < ; $ ; % $ % @ = > : $ # : 4 , $ o $ % % ; $ $ @ $ # @ $ ; % $ $ < 6 % 4 4 $ % $ % O @ < $ $ < 6 ",
"= $ $ $ $ $ - - & % % < % & : 5 % % $ @ % $ o O 2 # # $ $ $ $ # o $ ; % & @ < , , : % % < y s u p 5 ; 5 % $ $ O $ O @ % $ @ % ; ",
", % $ = = O = & % $ $ 4 % % % 4 : @ @ @ $ = $ O $ % $ $ # O # # @ @ $ : ; @ = $ $ 4 < : 5 1 4 , 5 Z G v h % : $ 6 y 1 1 : : : 6 ",
"7 u 4 e , = % : < ; ; < % & = 4 9 : , > 6 y Z F 6 > : 2 3 : - 8 L s N m z 9 m G P v U ..o.C 8 3 < 9 9 p 9 8 9 j 6 v p v U z p v ",
"^ V : y r > - 4 & $ $ < % 3 3 l I k r 3 l N H P l 3 , D H r r [ #.} l [ [ A y h m T %.>.+.@.U l [ $.T , 3 h ! F P : , - : , : C ",
"o.l ; h e , & , & = = 5 % , 3 u K k e > 8 r e 6 y 4 $ 3 [ H r T o.( T } ( l y N r l R F P T +.>.9.w.[ r 8 } 1.;.o.r , 7 ; 6 , ' ",
"T > $ 2 $ $ $ : & = $ 5 % $ , l L r , = 6 e : $ = 6 8 ; ( s.T $.5.F ( G 3 , r , 3 6 6 4 , z 4 v 9 z 4 - 6 ^ ^ A 6 = : : : - : C ",
"h h : 6 6 $ $ 2 < , ; 6 % $ q l P g 6 : , r , : 3 6 : = o.l.[ 7 p 5 U G , : : 6 4 3 6 3 : V h 6 z N , $ 4 } _ 8 e = % , 3 % - z ",
": : ; 6 $ $ = : < - : 4 % , : : 3 F h 3 s F r e 3 y $ = 4 , - $ % % % : : r y T F ; : : : r 6 H V h 2 $ , j A y 8 r & , 4 , 4 : ",
"& % ; : ; # = : < % = 4 & & % % 6 w u 6 l k 3 e 3 e = $ : m H N h z N V V 6 y r 8 $ % > 3 N 8 h 6 : # $ : T b 8 : $ % 4 2 - , 4 ",
"$ $ = , $ $ - 4 < - - 6 : : 3 - ; = : , 6 , ; ; 4 , : $ 2 [ P T ( ..[ [ | l h 6 3 : $ $ & y : 8 h y 4 # & Y b : = $ $ : > - : = ",
", : $ , 2 $ $ : : $ O 7 $ - = $ @ @ = - ; = $ % & l K = [ R K R 1.w.w.5.i.} L T r r o.8.3.T } D l y $ 3 4 8 Y y 3 = : : : - 4 6 ",
", , - : $ $ $ $ & : ; 9 : % O O o $ : : > : < ; : ( ^ ; r , r N G D F T 6.6.r q.N 3 y h h H F o.i.3.R 3 V ^ [ v y %.6 = $ $ : y ",
"$ % % , $ @ $ 5 < ; % : < % $ $ o $ - : ; $ : % : : = $ ; : $ O $ = > F R y h h 3 > [ _ H 8 r 3 r 8 2 $ 8 F : v 7 : 9 6 $ $ - - ",
"o   o $ # $ + - & $ $ , & $ = = O $ $ O - O $ % % % o : e , $ = : $ = h 3 3 3 : : > 8 6 z 9 = , [ &.o.3 } b 6 8 $ 2 = : = $ $ o ",
"O O O @ o $ $ & < 5 5 < % % $ = $ @ @ $ = @ % $ % $ O = r = . @ O $ - - - = 3 = $ : : : 2 y = $ $ $ $ $ ; 6 6 Y 6 3 = = $ $ 8 - ",
"O . o $ = ; $ & 4 6 4 4 - : - ; $ o $ + @ o $ @ $ $ o $ = $   O # $ O O O $ = # $ : $ - : ; $ # = 2 = $ ; z < 9 , 6 = $ O O 6 y ",
"* = = - ; : - ; % - - $ $ 4 ; , $ . $ O $ o @ % - 3 o o = ;   O $ $ $ # O = h : $ ; $ : 3 3 ; = % 2 & O % { *.3.T l U 6 o $ 3 : ",
"o = 1 > $ = $ : : % : = $ : $ = # o $ o $ o $ % 4 6 $ $ ; ; O O $ 6 8 > $ , L 3 ; - % : - : = # = $ $ $ % U H H r 6 > ; , 6 - $ ",
"O @ = ; $ = < : , , 2 - $ $ $ 3 e O @ o @ o $ % , : O = $ = = O X O $ # $ , % $ $ : $ $ $ # # o - : : $ : % & $ O $ @ o X $ - $ ",
": O O @ $ @ & : & $ $ O @ $ @ N r - # 6 9 o $ % % = O = $ # o O ; - = $ = $ $ $ $ 7 $ $ # X X o - y : o - < < ; $ $ $ O o $ 3 , ",
"4 = = = ; ; - : - - $ O @ # 2 b r r 6 P C $ $ % , = , = e g 3 , r , $ , 8 $ % $ $ $ & $ # o o X o # O O - 7 , 5 4 3 % ; = $ $ $ ",
"p r 6 , s ( [ h 6 e - 3 # > ; 7 p 9 4 ; 6 9 < 5 4 ; $ # = $ o o O O 3 l u 4 2 8 h , 3 $ $ & $ 6 h N T $.*.H 6 6 N 8 6 6 6 3 - 6 ",
"_ l N 6 m } H r 6 8 : - > 2 ; 4 5 ; 4 ; 5 7 4 5 = : ; ; ; ; ; = = > ; ; e - , r 8 l 3 8 3 D A v l y y l m F o.;.+.@.T N F l : V ",
"H y h 3 w y A 3 [ y , # = > ; < 5 & 9 5 < - < < % 5 : > y 5 7 5 6 = ; 3 k 6 6 ' o.f e p 8 8 z Z H A z 9 6 j Z ^ } *.R F h 3 > j ",
"~ A F 6 6 r , 3 o.l y $ $ $ = < < 5 5 5 < % 5 < 7 5 ; > : 7 7 < , 5 4 3 e , r C T L y 4 9 3 h H T A h p p 9 j V N j h N V j 3 8 ",
"! h T z 6 6 3 b P 3 w > : @ o 2 % & % - - & & & & 5 9 9 9 < $ < 7 5 - 3 5 : , 6 z : 3 , % : j 5.g.9.O.*.[ A p p 4 N y 6 h 2 $ 2 ",
"4 3 % 3 6 8 ; u y - 3 > h O @ : % & < : : : % & % : $ @ % % $ $ & , - : : % : 3 1 F V 6 6 : , h s z j 6 $ $ 3 6 & 3 3 - 3 & $ 2 ",
"& : = = 3 6 : l y - 2 = e = @ < % : : > , : ; & % ; = = ; = = O $ : : & : - , q e k ^ [ U 7 6 4 % @ @ @ 4 4 y j 6 6 3 : : O $ & ",
"5.Q ;.l l R 3 D l 4 G $ * , : 1 & < , < 5 < < % 5 7 6 1 6 6 < 5 < < : - , 3 : , , l ( ( V G ! b N 4 , 4 , , , r m A 6 = j $ $ P ",
"j.>.k.$.s T 3 r 4 : : + @ < < 5 7 0 0 0 5 < 7 5 7 9 < < 9 5 % 7 5 < & - : e V , , y m 6 h ^ ^ _ U y 8 6 3 8 : 2 3 % 4 = 7 2 $ ' ",
"2 0.8.} :.k.> f r 4 v $ + : & < & : & : - : 1 5 % : : ; $ 5 & : $ - & ; ; 3 , ; < = $ , h G | | T l 6 : : 3 : : 6 3 , 6 & O $ O ",
"O 3 @.T u R w f l k N ; $ 3 $ , % < : ; $ % < 5 < 0 9 5 5 5 : 5 5 7 < $ % % $ $ & : $ : p Y _  .v 4 2 s s F N r h y N F } = $ = ",
"O = ; l u N k k e w r ; $ 7 % < % < 5 % $ & < < < < < < : = % : & < : $ : + o $ % $ $ $ 7 v !  .G , , 3 6 r , 4 N r F y ,.y $ $ ",
"* 2 O : 3 f 3 3 3 3 3 > $ , $ 4 % < : = % ; @ & : ; = = - : : < $ 5 : & 8 3 @ @ $ $ o o : 9 b ) H f m 4 , , , u z p F $ ; ; $ : ",
"# 2 $ % - : > & ; > * * = ; $ , % , $ : $ : $ & < 6 > ; , < < 1 : < & $ r p , @ % o $ @ o < H ( z - , l e : : : 7 , y $ $ $ $ % ",
"$ 2 = = = 2 9 9 0 9 9 5 : 5 7 5 & < 3 e , : 7 7 0 9 7 9 7 6 - 5 4 < & $ : l e $ $ O + : , : 9 U o...} 0.p H &.o.;.Q Y h 3 3 = $ ",
"= 3 2 2 = = 4 & < < : < % : & : & , , - - & : & < % % % : % + % % % < $ : > , : $ + % $ $ $ ; , Z 6 : = e r Q +.@.6.6.R 2 r = 8 ",
"i.# o @ $ = 4 % & : % 5 % < & : - : - , - : $ $ % - - ; = $ % & : & % $ = $ $ - $ : ; % = $ $ $ $ $ @ o r ' y.f.i.d.p.q.} Q = y.",
";.8 ; = = & 4 & : $ ; < % : : < : - - $ % , - % < < , > : < ; < < % $   $ - O 6 $ 5 9 , 6 3 6 3 y m 6 , O = # y >.t.;.i.@.| 3 Q ",
"$ r 3 = O % 4 % : $ $ 5 % < 5 9 : % : % ; : 4 , 7 9 6 < 5 7 5 : & , = o o $ $ 2 @.[ T 1.T h L u 8 8 , = O . o : > 2 4 , 7 7 % $ ",
"$ - - ; @ % 5 % ; $ $ , $ < : < % ; = = = ; 5 5 % & & : % : % $ : : 3 y # O $ v P T d o.T h 4 8 6 u 8 $ @ o o @ o o $ $ $ $ $ $ ",
"$ 2 % 3 : $ < & : $ ; 5 $ = $ : < 9 9 9 4 5 4 5 % & % % % ; % : $ & : 8 4 $ % % $ G y b C h 8 6 u F l : : @ o o $ $ % & $ $ % $ ",
"$ ; % : 7 < 4 4 < ; $ 5 & 5 7 7 5 < < 5 5 5 : < % 6 9 % + $ @ @ O $ 8 D , 3 $ $ ; L T ] a.@.a.0.i.h.i.$.....s 6 8 h Y Q ^ V E : ",
"= $ $ $ : 4 4 < % $ $ 4 < < 5 5 < < 5 < < 5 & % < 7 *.z $ @ @ @ O @ 7 [ H 8 : $ < T ' G ..} [ Q ( } o.+.y m e l 6 8 6 4 , y V 4 ",
"$ $ $ $ $ $ 4 % % $ $ : < < & % $ $ % % - : & % & & 5 < % % $ < : ; 7 v V 8 4 $ - $ = 2 - - : : 3 4 7 : , 6 < 1 l u K K r 3 : $ ",
"O o O O $ $ 4 $ : > $ : : 4 < $ $ : * : = : % @ & : % @ 8 j 2 p G y r T v 9 2 $ $ @ - , ; - 4 6 2 9 8 $ $ 1 : = = : : : : : % = ",
"; y F - $ $ 5 < 4 $ $ 5 < & 5 5 : 9 4 1 1 < < @ 4 v m ; y z y p h s m [ h r 7 6 $ $ 2 6 6 4 % % % % $ O $ 6 , e = 6 6 : $ : 3 , "
};
