/* XPM */
static char *_633b82237cc4203cd169dd9ae7857a2W9ZtTHZX1N7JKhVd[] = {
/* columns rows colors chars-per-pixel */
"64 64 247 2 ",
"   c #1D2D15",
".  c #1E2A18",
"X  c #1E3315",
"o  c #1C3517",
"O  c #1C3B15",
"+  c #1E3C19",
"@  c #202F16",
"#  c #212E1A",
"$  c #213317",
"%  c #223817",
"&  c #23351A",
"*  c #28351E",
"=  c #243A1B",
"-  c #2A3D1E",
";  c #263C21",
":  c #2C3C23",
">  c #2C3A25",
",  c #313F24",
"<  c #333F29",
"1  c #1D4419",
"2  c #25431C",
"3  c #2A411F",
"4  c #264B1F",
"5  c #28491F",
"6  c #23511F",
"7  c #2C4223",
"8  c #284A23",
"9  c #2D432A",
"0  c #2D4A2B",
"q  c #324325",
"w  c #324A26",
"e  c #34452A",
"r  c #39462C",
"t  c #354A2B",
"y  c #3A4A2E",
"u  c #2B522C",
"i  c #34512D",
"p  c #3A522D",
"a  c #344B32",
"s  c #364935",
"d  c #3D4C32",
"f  c #3D5234",
"g  c #395935",
"h  c #3D5239",
"j  c #376436",
"k  c #404B2D",
"l  c #414D34",
"z  c #425335",
"x  c #455636",
"c  c #44543A",
"v  c #4B553B",
"b  c #455A3B",
"n  c #4A5A3C",
"m  c #51583D",
"M  c #45623B",
"N  c #49613C",
"B  c #3C4B40",
"V  c #455B42",
"C  c #455944",
"Z  c #4B5C43",
"A  c #4C5E49",
"S  c #535D42",
"D  c #565F47",
"F  c #476646",
"G  c #4D6144",
"H  c #4C624C",
"J  c #536345",
"K  c #5A6346",
"L  c #54644B",
"P  c #596749",
"I  c #556B4B",
"U  c #5C6B4D",
"Y  c #4A7448",
"T  c #59754C",
"R  c #4C6654",
"E  c #536651",
"W  c #546B54",
"Q  c #5C6E54",
"!  c #556B5B",
"~  c #5A7555",
"^  c #5C725C",
"/  c #62694D",
"(  c #636D52",
")  c #656E58",
"_  c #647354",
"`  c #687556",
"'  c #64745A",
"]  c #6C755B",
"[  c #637B5C",
"{  c #6D7A5D",
"}  c #71775B",
"|  c #727B5D",
" . c #546D63",
".. c #4E7265",
"X. c #5A7766",
"o. c #5C7A72",
"O. c #5A7974",
"+. c #627562",
"@. c #647A65",
"#. c #6C7C63",
"$. c #637B6C",
"%. c #6B7C69",
"&. c #737D62",
"*. c #627D73",
"=. c #668159",
"-. c #70825F",
";. c #5C8A6F",
":. c #5B8578",
">. c #63866B",
",. c #6C826C",
"<. c #748263",
"1. c #7A8365",
"2. c #73846B",
"3. c #7B856A",
"4. c #798B6C",
"5. c #6D9669",
"6. c #638374",
"7. c #6C8472",
"8. c #64847C",
"9. c #6A897A",
"0. c #768975",
"q. c #7B8B74",
"w. c #728C7B",
"e. c #679277",
"r. c #799479",
"t. c #858A6B",
"y. c #838B6C",
"u. c #83946E",
"i. c #828E73",
"p. c #828F78",
"a. c #8B9475",
"s. c #869778",
"d. c #85947B",
"f. c #8B9A7C",
"g. c #959C7B",
"h. c #929C7C",
"j. c #90A57C",
"k. c #698B85",
"l. c #6B8A84",
"z. c #728E85",
"x. c #6D9588",
"c. c #749384",
"v. c #7B9484",
"b. c #73928C",
"n. c #7A968A",
"m. c #7A9A8D",
"M. c #749692",
"N. c #759993",
"B. c #7C9B93",
"V. c #7B9D9A",
"C. c #74A58E",
"Z. c #79A595",
"A. c #7CA29C",
"S. c #7FA9A2",
"D. c #849A86",
"F. c #8C9C83",
"G. c #939E82",
"H. c #929E8F",
"J. c #839E94",
"K. c #939F90",
"L. c #89A389",
"P. c #96A184",
"I. c #9BA385",
"U. c #9AA78A",
"Y. c #99B28C",
"T. c #85A394",
"R. c #83A49B",
"E. c #8AA798",
"W. c #8BA99D",
"Q. c #97AB98",
"!. c #88B79B",
"~. c #97B49A",
"^. c #A1AA8C",
"/. c #A4B18F",
"(. c #A3AE94",
"). c #A4B294",
"_. c #A9B797",
"`. c #A4B49C",
"'. c #ACB99A",
"]. c #B2BC9B",
"[. c #83A6A3",
"{. c #84AAA5",
"}. c #8BACA4",
"|. c #85ABAA",
" X c #8AAEAA",
".X c #95ADA3",
"XX c #88B5A7",
"oX c #8DB3AC",
"OX c #9AB6A7",
"+X c #93B4AB",
"@X c #8DB4B3",
"#X c #8CBAB4",
"$X c #92B6B3",
"%X c #93BAB3",
"&X c #9BBDB4",
"*X c #97BCB9",
"=X c #94BCBB",
"-X c #A5B9A4",
";X c #B0BEAD",
":X c #AEC298",
">X c #9BC6A6",
",X c #92C7B2",
"<X c #97C6B9",
"1X c #9CC3BC",
"2X c #A9CAAD",
"3X c #BAC5A5",
"4X c #B8C6A8",
"5X c #BBD4AB",
"6X c #A4C3B3",
"7X c #A4C5B8",
"8X c #B6C8B5",
"9X c #C2CDAB",
"0X c #C4D2AD",
"qX c #C8D8AF",
"wX c #CAD5B2",
"eX c #CBD6B6",
"rX c #CAD9B5",
"tX c #D4E3BB",
"yX c #9CC4C2",
"uX c #9CCBC4",
"iX c #9AD4CB",
"pX c #A5CAC2",
"aX c #A2CCCC",
"sX c #AACDCE",
"dX c #A7D3CA",
"fX c #ACD4D3",
"gX c #A9D7D5",
"hX c #B6DBD8",
"jX c #AFE6D7",
"kX c #B1DEE0",
"lX c #B7E4E5",
"zX c #BAEAEB",
"xX c #BDF0EC",
"cX c #CAD5CC",
"vX c #CFDACD",
"bX c #DCE8C3",
"nX c #CCE4DC",
"mX c #E9F5CF",
"MX c #C6EAEA",
"NX c #D0ECE9",
"BX c #C7F5F4",
"VX c #D6F9FA",
"CX c #EBF0EC",
"ZX c #E6F9F9",
"AX c #F4F7F5",
"SX c #F3FEFD",
"DX c #FDFFFF",
/* pixels */
"d.G = & = 7 ,.%XB.v.E.W.-X~.S.Z.k.O.[.n.M.*...:.e.k.k.M.[.+X7XpXn.H A C v H Z a ~ L.+X&XR L G.OXn.r.<Xk.|.=X1XgXhXgXdX>X,., F W.",
"S e & = : C G e n.gXuXV.k.8.C.N.x.6.*.n.c.V.N.e.e.>.*.*.'.}.<XdXBXhXQ.7.A c 3 = 8 { X.[ S > s B L .XaX1X=XfXdXpX{.>.G - 9 -   = ",
"  q & @ X X - G XXfX$Xb.b.o.R O.v.U.'.`.r.L.E.>XL.Q.v.F.P.OX<XjXVXDXAXP.n y = - q r $ - v P Z ^ B.$X*XyXpX<XB.b - q h X.,.W d & ",
"= : d h e : = q b %.!.=XkXS.6.X.#.I.^.P.q.0.n.m.8.8.+.3XrX8X<XR.7.4.#.c i - 7 d q v $ % $ = : r f c C W X.,.,.[ X.>.X.I b h t ; ",
"% & q z c X.w.,.L q 9 G 9.L.F.d.1.) R l.8XT 0 P %.U.U.F.d.@.! O.^ E c e % ; c a : v = = % 1 o o $ & & & & = f H h 0 7 = o X $ $ ",
"$ % = : q r F H +.B.z.s $ = d K t.2.Q.W.3XU.^ oX.X3X3X].bX3X.X=.9.E G +.v.L q = * ; * ; 9 u 8 o % = = & = 7 d & = & * + =     X ",
"a o + = % & & e q $ - W ^ S q v A J p.U.f./.! dXOX9XmXG.mX;X3XW 8 j p - % = o = * a h 0 = + 8 a a ; = & o % $ o % = ; a 9 e 9 a ",
"$ q = 0 1 X @ $ a = $ $ o q r ; e q t S ` s. .<X[.'.mXU./.'.Q.v.8 1 0 ; % % o : > 9 . $ . X o   . 9 9 $ X $ @ $ : a 9 # .   . . ",
"o w + 7 9 :   . ; 9 ; > > ; 9 a $ $ * r P Q.U J.XXQ.0XbXp.#.7.-X=.= o 7 e X > 9 9 > = & $ @ o o X   : a     $ : 9 > * & X X . % ",
"- i = & & e *   . & o . . . & # $ o $ o = P # L &X4XqXbXbX).#.] ~ : ; ; e t 9 * - > = = % % 1 O & $   > a e e , * > - & % $ & = ",
"q w = * & X g   X . .   . . o o X X X o $ p - J Z f.I.].].].g.3.J A q & = a & % * * - = = = % 1 1 + & $ * + % * & ; - = % % - q ",
"y - & * & $ = y + > > 0 8 9 > 9 & # # X % f : & * < K } 1.| ` | F.J r = & & & 2 = = - - 2 3 = 4 2 & & $ X X @ % & = - 2 * : q q ",
"p - 7 $ $ * & y ;     o o o . o p 9 7 o & o a i * o t b S D m b J n v - = = = 2 - - - 3 3 - 5 - = = = % % % % % % - - - 3 q q q ",
"u p w % = = & o & ; i g C C e a = 7 ; 7 + X o t z a M =.| ) n m x v m - = = = - = 3 2 3 3 5 3 3 = - 2 2 2 % % - - 3 - - - 3 q - ",
"& 7 p e 9 = - q H E.pXsX$XB.w._ d e . & : & . . e = 7 y v c z S m n l , - - - - 3 3 5 3 3 3 - - 3 3 3 = 2 2 - 3 3 - 3 - - - % % ",
"= & w 9 = & t Z ^ J.$X X X[.W.Q.D.L q X o > & X @ % = a a e < , w r 3 - - 3 3 3 7 3 3 3 7 - 3 3 - 3 3 5 3 3 3 2 5 3 3 3 % - % % ",
"% o $ % % q b ,.+XcXZXhX$XA.E.W.~.1.` :   @ w @ $ & 9 > > > > ; - 3 - - 3 3 - 3 5 5 3 3 q - 3 3 3 3 2 5 3 3 3 3 5 3 q - - % = % ",
"& % % % 8 x Z 0.CXcXAXBX@XC.m.b.).P.g./ = @ $ y & : ; > : > - = 6 6 3 3 3 3 3 3 - 3 3 3 - 3 3 3 3 4 6 6 6 3 3 3 3 5 - 3 3 = % 2 ",
"= = - q f V C ' cXvXvXVX#Xx.c.8.5X'.eXG.n & @ q 9 = * = : - - - - - 3 5 , 3 5 3 3 3 3 3 3 - - 3 5 5 6 6 4 5 5 - 3 5 - - - 5 2 - ",
"- 3 q l n n c G ^ ;XD.Q.A.6.X.k.5X3X;XbXI.S $ = 7 $ & 2 8 = = 7 - 3 3 3 - 3 5 5 3 4 3 - 3 3 - 3 5 6 5 5 - 3 - 3 q 3 3 3 5 3 3 - ",
"q y d v F c M z d l Q , H W.z.v.5XtXI.eXtXG.Q 7 % & = % = - - q 3 - 3 3 3 3 4 5 3 4 3 3 - 3 3 5 - 3 3 3 3 5 3 3 q q z _ <.<.H i ",
"z l l x l v w q - y c r.Z.$.z.F.0X0X9XI.tXwXG.d.J n J #.r.L.d.%.n w 3 3 3 3 3 3 3 5 3 7 3 3 - 5 3 3 - 3 3 3 3 q t g v.6X6X6X>Xr.",
"%.r r r k - = : q q f E @.m.^ p.0X9X9X_./.rX'.9XQ.%X&X&X<X,X<X&X~.{ l 3 3 3 3 - 3 3 - 3 3 7 = 3 - 3 - 3 3 4 3 q l 7.pXpX<X,X2X2X",
"p.q r p q r q : * & & ; j ~ #.[ a.wXwXwX/._.9Xw.R.@X%X%XoXXXXX X&XOX3.x 3 q 3 3 - 3 3 3 3 7 7 7 3 7 3 3 3 5 q r z R dXpX1X,X+XL.",
"&.7 3 3 0 i a : o . X   % j =.J ] U.tX9XbX(.(.k.M. X@X[.V.b.b.M.V.E.F.q.v 7 3 - 3 4 3 7 t z b v p q 3 - - 3 q d v h Z.m.R.R.`.U.",
"q.z % = o o   ; 9 ;       4 M i.K #.'.0XwXr.L.k.M.[.[.b.8.O.o.*.k.N.`.P.q.J q 3 - 7 q y +.L.Q.Q.D.2.J y 7 ; r d c d I 4.n ! @.q.",
").4.M $ & $ $   . ; 7   @ $ w ` F.U p.).rXY.m.k.b.+XfXV.8.O.O.X.O.8.E.-XL.d.P q 3 q z @.6X7X7X1X7X7XOXF.#.Z d c h c c !.>Xm.F.U.",
".XXX~.' - $ $ $ o o 8 8 @ $ q k s.a.~._.tX`.6.x.n. XzXyXx.O.:.....O.:.d.5X_.i.n q f C c.fX[.yX$X|.XX+X&X&XOXc.h a d Z L.oXF.'.4X",
"A.[.{.[.2.q = $ X o X x $ * & v S f.d._.mX`.X.N.n.|.fXfXb.:.:.:.X.0.Q.P.U.vXG.{ f v C R.BX2.$X[.V.N.A.{.@X<XgXgX}.Z.0.OXL.-X.X[.",
"x.6.b.M.-XP.x = = o $ - v $ % k e P.Q '.bXE.6.w.@XsXR.T.o.! O.D.wX]._.rXwX(.Y.L.^ h C $XNXsX*.[.9.k.k.N.A.,XjXBXVXdXE.%X X|.[.V.",
"e.S.;.:.n.-XH.^ 7 - = 2 n % * , n d.&.>XP.c.V.l.aXzX}.yX[.J.2.9XwX'.a.f.3XG.a.`.!.g e.CXcX$X6X*.b.8.O.k.M.[.iXlXhXc.fXC.{.[.A.z.",
"k.S.O.O.:.x.V.$Xw.d q 3 x w - - J D.d.x.6.k.#Xb.kXlX=XW.OXJ.).d.g.I.^.U.<.~ s.2XjX!.NXDX;Xw.gX1Xx.b.k.8.8.M.A.W.n.{.aXk.x.b.l.k.",
"k.Z.k. .O.:.k.A.$Xb.c r p p , : S *.L.9.b.x.#XN.aXpX*X`.*XL.'.P./.].'.Q.a.3.Q.uXBXDXDXnX,X;XVXkX|.k.x.V.A.M.z.V.|.@X|.8.k.x.C.k.",
"O.M.x.6. .O.:.k.[.sX-XZ p z q , K ^ }.*.|.M.=XZ.T.7Xr.D.&Xi.4.t.t.t.<.&.3.f.&XlXSXDXnXhXMXSXBXuX%X%XV.k.iXjXgX=X|.=X|.N.N.C.C.:.",
"R k.7.) 2.6...8.x.@XVX-XM c t q J L +X' oXJ.$X6.|.s.N z S ( ` | } &.| u.U.$XaXBXVXfXhXzXZXVXhX7X<X%X&X&XC.<XzXMXaXgXyX@XS.Z.o.7.",
"A _.rX4X).rXZ.6.*.A.lXAXq.A r r J n &X#. .sXD.G.i.^ 6.r l Z ) } | &.g._.V.#XaXaX[.hXzXhXVXkXdX7X6X-X&X}.9.*.X.w.hXzXgX|.e.w.L.R.",
"v K ] ] ` U.~.oX#XXX[.r.K.2.h n C n +XL.H R d.L.c.M.OXG.m Z / &.3.^.2Xk.M. X[.[.iXiX#XaXgX1X&X~.<.L Q ,.>.g A E E E H 6.r.] w.p.",
"' J T K _ #.q.r.m.w.! C c ^ C L A c +XMX1XX.Z C  .X.U.^.{ S ( | ] g.r.B.$XyXaXuXiX@Xx.|.|.+X-X4.x = $ $ = y f f L w.m.w.7.0.2.' ",
"P { ( { p.W.R.XX|.k.$.W f q z Z v c W..XE n : . o 7 a K } } / K l x 0.}.MXSXVXBX=Xz.z.R c.Q.3.U i % o & q N F H R F h ; 7 C I Z ",
"r z I ` q.+X1XgXlXhXgX=X@X9.@.E < > < > # d h a X o - ; l K | _.&.h : s D &.H.E.sX$XyXn.A K D v b b f t f z t t h ; 0 d 0 - 7 n ",
"N J N y 7 q l G 9.R.m.c.9.+.L r c.w.d * d ^ 2.' S U P c , > : &.P.Q.=XT.W n q d c $.v.&.] ) Z ) ( 7 = : q , % $ o . o ; # O 1 c ",
"q x 4.E.,XoX>.Z L ' n.$.A z - q e 3 c S 9 $ * < l v A I c * + 7 F g : e c ^ q.w.A $ v 3.a.#.} n w = = = t $ $ $ o . o X # X X = ",
"@ : %.J.R.=XxXNXSXDXDXhXL 7 q r a - & ;   X : e s 9 > r v k * o 1 8 = = + 8 t q ^ r a L P S S n 7 8 7 9 r % = % o $ $ & ; * $   ",
"= t [.zXzXzXzXzXVXNXsX}.,.d f 9 = d * $ + : a < > * ; * * : < & o   ; : O o = 0   & ; n / / U d 9 & O 3 q % = - = = $ ; 9 ; * 7 ",
"W C E cXZXzXaX=X[.oX{.L.q.9.7 & * ; d & 0 ; > * * ; > 9 : > 9 q 9 ; . $ ; o   ; t # q r D ( I q & & 7 x t : y : - 1 2 8 ; 9 = e ",
"v %. .A Q.+XV.[.@X[.Q.d.+X#.7   > * d a o . > > s > . . X $ & % $ .     + 8   . d e $ < D ( / ; * y n n g [ J z x g j = $ * e 2 ",
"q v 0.i.C Q.SXzX@XE.F.E.d.L y * r > ; . o * 9 s ; + # o X & $ $ $ X + X   8 ;   $ : $ l D m v Q X.%.^ n.<X~.,.L.P x K : @   ; w ",
": : l D.Q.D p.fX+XG.J.(.3.K v q J < > . & 9 > > 8 = * $ $ & $ = & & & $   X 7 & $ & = g _ ] L.hXSXvXCXSXaXL.0.F.] U m z $ $   f ",
"d * , x Q 8X7.z ' w.Q.g.[ / m b M S r X 0 q , > 8 2 = = % - % = - % % % $ $ w = % = 8 T f.Q.*XhXcXnXDXNX[.d.J.P.| ] K l = O $ - ",
"x - , x y I &X@.[ J.U.u.=._ K S y / r 3 e > , ; 3 = = = 2 = 3 3 - - % - - % - p 3 f c D.Z.z. XhXCXDXSXyXD.Q.L.g.-.| ` v - = $ = ",
"r r - x y r G s.{ <.y.1._ } / m v K ; t > < k , 3 3 ; 3 3 3 3 3 - 3 % 3 , - 2 k q @.c @.m.}.hXDXDXDXNXJ.`.Z._.g.-.-.-.P q % - * ",
"3 l , r k 8 w P n b | { ] &.` / v I 6 7 q v l q - 3 - - - q - 3 3 3 2 , q w 6 x 7 E = G &XgXfXQ.0.+.>.4.-Xd.^.a.1.3.1.` k - q , ",
"q z , r d 3 - n n M =.=.-.1.| ] / K g x N x x w 7 5 7 3 5 3 3 3 3 3 3 q t r , x l d z.: e h a f y q Y X.I [ a.g.1.a.t.1.m q w , ",
"r x r l y , 3 x x K T =.<.y.<.y.1._ v z N N n q 5 4 3 - 4 3 - 7 3 3 3 q r r q x l f &X9.t i h H L ^ e.L.( d | u.<.a.a.1.` p r r ",
"l x l x p 3 - b w ( 1._ } u.t.a.j.{ U Q K N x 3 3 5 3 3 5 3 3 - 3 3 q r y z y v z r J.OXv.9.F b f g u f ' q / t.-.j.G.a.r.Z z r ",
"x l r n p q = p 4 m 1.1.) u.t.^./.a.f.` } ( n 3 - - 3 3 - - 3 3 3 2 w z z c l n x i Q | n a q 4 = o o 9 L A l | <.^._.'.-X' c y ",
"v a y x p - = q 5 x } &.&.t.a.].:XQ.0Xa.1.{ n 7 - 5 3 3 3 3 5 - 3 w f h b b c Z l w M P z q = = o o   o t S a P 1.j.0X0X&XB.A d ",
"x d y z q = e : % k S W 1.u.g.(.h.F.bX_.i.4.I 7 - - 3 3 3 3 - 3 2 p z x Z v V v l a x F w = O = O O O O ; v x q / t.bX-X XNX,.c ",
"d r l y = 7 r - q : m Z } a.y.4.G.D mXeXY.j.] y 7 3 3 - 3 - 3 - q k x n Z Z Z c c Z c z q - = & o O o X & , S y r N wXn.@XSXQ.Y ",
"g d z 7 - q o = d x e c m | G.i.bX3.bXmX3X_.f.<.x w q 3 3 3 3 3 w x z M Z Z n l C Z c = q q q : & X   & $ = r &.P M =.b.<XVX7XY ",
"b z q - : = 9 9 a Z V d r v 3.^.bX9X^.mXeX3X;X.XQ.2.W g q 5 3 3 r d c n C x z c Z v v ; X 9 R R F e = - 7 : 7 ' `.! W *.yXMX8XE ",
"d y - , a 9 9 : ; , l ( ] K y.1.U.tX&.9X-Xr.N.[.+X7XOXL.Q p 5 3 q y c c z f A X.v z S d 9 ; u g R G = = = = = g X.M.6. .x.hXJ.Z ",
"b t e d 7 & $ o % q #.Q.R.z.D.+.q.5X(.7.9.8.l.M.V.{.+X6XOX4.M t l d l C A C S X.l z ' E.~.).5.c r 7 7 h Y Y C E Z.lXT.x.A.yX7.E ",
"R.Q a = & & = e >.>X$XJ.D.%.E.x.*.4X6Xd. .O.O.8.x.b.V.[.oX>X-Xr.Z z Z c H H Z W ^ P }.%X8XQ.' d.L.d.,.z.A.,XyX1XW.w.1XpXT.$.%XyX"
};
