/* XPM */
static char *_bc55341fa884182d6a36b705d25da0ccEyWR35mwES2MVhI[] = {
/* columns rows colors chars-per-pixel */
"64 64 88 1 ",
"  c #020202",
". c #040404",
"X c #060606",
"o c #070707",
"O c #090909",
"+ c #0C0C0C",
"@ c gray6",
"# c #101010",
"$ c #131313",
"% c gray9",
"& c #1B1B1B",
"* c gray11",
"= c #202020",
"- c gray13",
"; c gray14",
": c gray15",
"> c #282828",
", c gray16",
"< c gray17",
"1 c #2C2C2C",
"2 c #2D2D2D",
"3 c #2F2F2F",
"4 c gray19",
"5 c gray20",
"6 c #343434",
"7 c gray21",
"8 c #373737",
"9 c gray22",
"0 c #393939",
"q c #3C3C3C",
"w c gray24",
"e c #3F3F3F",
"r c gray25",
"t c #444444",
"y c gray28",
"u c #484848",
"i c #4B4B4B",
"p c #4C4C4C",
"a c gray30",
"s c gray31",
"d c #505050",
"f c #535353",
"g c #545453",
"h c #555555",
"j c #585858",
"k c #5B5B5B",
"l c gray37",
"z c #606060",
"x c gray39",
"c c #646464",
"v c #656565",
"b c #686868",
"n c #6C6C6C",
"m c #6D6D6D",
"M c #6F6F6F",
"N c #717170",
"B c gray45",
"V c gray46",
"C c #777777",
"Z c #7B7B7B",
"A c #7C7C7C",
"S c #7E7E7E",
"D c #808080",
"F c #838383",
"G c #848484",
"H c gray53",
"J c #888888",
"K c #898989",
"L c gray55",
"P c gray56",
"I c #929292",
"U c #959595",
"Y c gray60",
"T c gray61",
"R c gray62",
"E c #A0A0A0",
"W c gray65",
"Q c gray67",
"! c #AEAEAE",
"~ c #B1B1B1",
"^ c #B6B6B6",
"/ c #BBBBBB",
"( c gray",
") c gray76",
"_ c gray78",
"` c #CACACA",
"' c #D8D8D8",
"] c #E1E1E1",
/* pixels */
"VHKSBBbbdmbBvvbir=2*=,=*$:,wy0lhw7275::2:a0*r2&+OO,7&,=+**Xo+7wr",
"mLDmmlvvdhvmDHHjiw2w02:5=*:yvaBVxdaaiwdrxjywy75&%$X5irbv**%&$55a",
"IKSldavdajVmHVBv75yri,:&=27dSabBSSmjvvvSZVmjrw7:*=&&adBZv==:*7iv",
"IKbdllhyilVbBbxa0*22w2:*:7rbmdxvmmjlBbhZvVlvmxh0&*:iY!KEEalj0iil",
"RRjhjy,5yabVSByr0w5aa==5,ravlhllahxvmbvVllbhjBGa70L!(^lU!YKjbYY/",
"jaVYBlyirbSKbj22*$:*5=772riwahBxhhlvbxlBaijxBVLRliEQ0w:0jjVb5lYm",
"2Vx0LYrBbbZSxi2:*&$$,:&:w*777yjhjhdlvxjhvrixgRDKVwy,ih52iw2==wZ2",
"r,yhmIZrKDyD7$%&%+O%*$$%&%%%&r5rhllxxxjaayvvbYHvllidad0d0*22yhha",
"y757*,ibDZv5$X X$=:0++:%$$++&**:wdvldr55b,lSxvZLIjhw0yihy59ylhji",
"72:7057djZvw&OX%:hBv:O&7i,$ +XO=**a5dadhHvSnbHIRIxhawliwp9hlhhiw",
"2:iiywvmImy0%2+$2&y7=OO:y$O+*5%0:&h*bILBHbSVmJYKxvxvpciyramapi52",
"2wdhl7xSxa22X+O 70&,*0rw *ii77&+,BVdBBLDDZYYDbVmyraggty5jjBli2==",
",i7whjjjda:+%+O O%a22xr0$wBHLd,hdaKHSZSxHDZbv0idjidh60,ylVma0072",
"7w2wllxjl5&OX$++%vhhhx2=wx5wQW2ib/RE)/QLmxhwrt7ahdjr=yrrwlVrwr7=",
"70iihVBva*7O%&%5wSRBDw,wi0,yv]ZIRDDQSBS_L]Zhd07idaawr>42ryxjdaw2",
"hlldambla::&jbBd5Khi:O*=,2=vaVbad72vwvjvU^LxIddhwr5562w7,=xVhhp7",
"VVi7iVZKx:dYbwvhblOXX  :alia700ww*=000,Um,5vyL(Yvd07$:aha,2Sxxbv",
"x=,wbSZSZZaiaa&vHO OXO*:,50xa7y$*27+=w&bIEZSbjKSBxl5%d0wa,&dxBBH",
"Di7yv0rHDHh&&h:$OO*:%O=%&&w0aw,:0yj$O,=62%VSi2iUmv=mxwd00$=6lLVZ",
"VaBlw,5$==,%OXOXOO%==:7==,*=0adjdlw*+=:2ra0jBhrKawrvm5wjhahhldmw",
"m2i7:&&$=a22=OO&&*&&*,,,2*==:20hiiw&O%%:0:aDm2v2y7d0w*,7jIblw22w",
"jVi2w2,$2l:O%%:w075y2,*:2=O%:=&277r% O+,:X5r&%d&=O%%+,2ic2=w227r",
"ix0ljWvr02*X%%$:27yra05==0=%,OO:i7&&++=2*$+X lU7vZ7  *,:w,$yO+&$",
",,j5*$jj5h$%+,&*=27ihi2,2,&&*700&:+&*O%O+:: &,0X%Hv%O*6%&j,dOXOX",
",i,7&Ovjvvw,+&$%*%*27l57%55007i2%O,=%%=%%%*%7di$,=Bd$$:7$5y2 X+:",
"aVmV5$lvr=h5=O$&$&&&%000*50rw,%$%*2+*656$*$:2,v0*la,:=&   X&+O2w",
"jddDr7wBy&=7dawwadxx,%2r&&===h:*:*,O:,55*=,O+*:xrv7$%a5+XX*rixKH",
"d5rvhhhl:,O=*2ahyB2aa:5Vl:0a=0iZw57UDU(i,,w=$&2iaa:$X:,2X***dZ!Y",
"%%2rlYSWB7wr*bSx7B5&harVU~Eia)~a=:YDmHWr5iK2 ,*iVl752%%+*wi7D!)h",
"iw:*wZYIjw=,*777SK:7BHv!axd=$,XO*bvw:jxBIyQy*Owypmy,O*7  aijE/UY",
":r0=OxxZSwVvV:y7xvxjvV5ih7$&+X$&5ld255wEVjp0*=*m5jj2:O  $rZ7HDIv",
":220wVaiBxglVVvhy0HR!L02,2%X+X$&yvjmd2dv5wlKa:ryw0w*OO$++awhliYr",
"2,07lKblDSjdjjDUEDSdxHy5007=+%2=hxvHljvmbSvh7,y70*%d&2w6$0VLvxV5",
"lyhmVKSVLHZSxdBWUEbhhShwwiw==&25iyvmxhlmh0xHmi,22$=hd&*=:0HWl*hj",
"rjBnVHSZLHDZlbVBYiawVIw:7wp0%*,77dxSZmjw,jBbD5=dD+w:0 XwaadLRjbi",
"riy,axmKKSmmmZBBlB!`HYDmjrww:*,0wlKHIbi52ydbDZjh*+2hi&7YlbrxHlBr",
"wa27ipxvxZVDBKZBRKavDVbxh255:*=0aSLIKZla7:7ILB:r::$+2OO ,jaSid0,",
"2lahyybVvZKKmLSKSHdvZD027&:0*::wlKZZvmxva2yI~b,$*X  *2OO+yKxdavw",
"SZBVw0bZHvmDHKlvLBEWSKy:&*,r==%plvlZlxmxiBZbVKh$ XOX+&,iimZvvjhH",
"ydll*$ivmhrLSBSvxbha,aLa:OrhO%,hyyZBVIBhbHDvdhV,+*,*%2dvvrHZVHjD",
"7+O%O*,l:=0mVyyhvmvxdjZW=7ZZ%:0V7%2xljUYxx5wmrZ5&&,5*&d2l*dhvhmi",
"**+OO &y=*=9rvVmBD(WxxBEj*7p%==jb,X%*vDLVUhad,,,,&&O%$:,=2a=,=:0",
"===27==,y5:y0ZhVZxQxLKhBW*d/2*767y%+7bjDZKSwjmLah7=*2:whpwjw0*,5",
"47+O:a07riaxciw*a0mLDV,:DmBjr++%y570w*+hRZ!RavUVZd:*ddvd7=*,,%:&",
":i*&7viwbjxY(di7iavvSLZDIVi7w$ O,=5b*$%+ViDUxI)WDDr5YlKby2,+&%=+",
"=xBK=7mdrw7ZIlvw,62ajmyRbByi**+$*jdVwi,,dm~ZjQYmR`YYQ__D0v,7&&aj",
"hJmVi*ihlbjjZlmly%,w6$=2VZ2*2XO$%=7ayBdZSwyvSQBixL`'QUYDWhd060lr",
"=wdihaVmvvayiadmv7=ri77aa7aj0%=&+$:waddimBbjhi7KmHE~BKjSbSaDmvm7",
"*&=40lnmhayw0pphBd:0=a=7ajrrg2Zww$$*ywhbBVvmjmVBlvIURQUmDh0mp:p&",
"*$,ydxVvirij0rlllv7y7h5ijp,:y0br,$7,5rwajbZBmZDmdvDLYWUISv=l=*7$",
"&+&72ylhaayiiwaaihvdrapydrwwr7mj5,75a72iBvBlZDSVSZxBjLSxBxh22:7*",
"+O&*:wmvjdh65570dwlDjy*7,%&%bxlnB*%&O&O&mBwBmZxhHVxbxh(mdl,O*2,,",
"&2*+O+=2,,:%&$%wyv^LdDhIddhw:Szj,BLrd2*,%=jbDZSxHKBjbWIyw& $i*2X",
"  XoXXO7>rr+& +7dx~xvjxHm_j$r7#5h7r=*2$hry6ya7jmlHdjr0HvhwO%=%5$",
" +*$XX =alwq4=,SLHhw2ixE]Khrh7:iISa%&$*ari5jhi0WDhyihhm2v027&,O ",
" 2=O+$%whpa6ar5ZSyxaa2*KmxBd2t5dBlEvB0x,,r:ah7&DLYjwSrX =%$&**++",
"X:++$%2yjjjwrwqdjHvxvry7KLVH,bvIVSKIYvlrr:O&>vrLKbRSBi+O*=  X%O ",
"+O++%5iijmBvldiidV~ZlvUIISmi7ja2BYZLhw2r=*=%=wjSIJl2why:OX   %&*",
"XO%%*77axxra2:=xhhvLirjYU^LaxldBKI2YHJr:5:O&$xB7hha2%2,y7*XO &=$",
"$$$$*%O%&=5r**097mj7755 2Bbbl2jDvcZS&,r=y:O&:wlbdvj,=v&%,*  X*,O",
"   &=*:7:aadja0;:65:%,$%*lcSH,V(DBl O+=pl:&xy2l7dZ7yl*OX50  %w5O",
"O$=rabjljjxavVxxaw2*+&+,,=r07wmZr27X+$ $2ixIB27h0liy, $XO7$O%+X ",
"*,aljbjllhdiyBjSv0,:%$&&$O+::r02%+$,:% +,lWSIi$,,,=$O* XO=X XXO+",
"*dlamZzZvjaqaZZbr2=*==*%$$&&:yy:**$:%%%&:277ai=&0=w* O  $%XXXOOO"
};
