/* XPM */
static char *_050c90b58ad48fd98167aa66b8d91ffdOgBEQ9t74oZBn8E[] = {
/* columns rows colors chars-per-pixel */
"64 64 139 2 ",
"   c None",
".  c #212F0B",
"X  c #25350B",
"o  c #29360E",
"O  c #27390B",
"+  c #2B3C0D",
"@  c #313F0E",
"#  c #273511",
"$  c #293611",
"%  c #2D3C11",
"&  c #303F11",
"*  c #2E420D",
"=  c #32440E",
"-  c #354B0E",
";  c #354A0E",
":  c #374A0E",
">  c #374B0F",
",  c #36490E",
"<  c #374C0D",
"1  c #344C0E",
"2  c #374C0E",
"3  c #364D0E",
"4  c #374D0E",
"5  c #364C0F",
"6  c #374C0F",
"7  c #374D0F",
"8  c #354A0E",
"9  c #394A0D",
"0  c #38490E",
"q  c #38490F",
"w  c #394A0E",
"e  c #394D0E",
"r  c #384C0F",
"t  c #394C0F",
"y  c #384E0F",
"u  c #3B4F0E",
"i  c #3C4D0E",
"p  c #3D4C0F",
"a  c #3C4F0F",
"s  c #3F4F0F",
"d  c #394D0E",
"f  c #39500F",
"g  c #39520E",
"h  c #3B520F",
"j  c #3C500F",
"k  c #3C520F",
"l  c #3C530F",
"z  c #3E520E",
"x  c #3C520F",
"c  c #2F4111",
"v  c #304010",
"b  c #304011",
"n  c #304111",
"m  c #304210",
"M  c #314211",
"N  c #324211",
"B  c #304012",
"V  c #304212",
"C  c #314213",
"Z  c #324410",
"A  c #334410",
"S  c #334511",
"D  c #314611",
"F  c #334610",
"G  c #334611",
"H  c #334712",
"J  c #354510",
"K  c #354511",
"L  c #354610",
"P  c #344711",
"I  c #364610",
"U  c #364711",
"Y  c #374711",
"T  c #344712",
"R  c #364712",
"E  c #344114",
"W  c #364617",
"Q  c #334312",
"!  c #394717",
"~  c #384715",
"^  c #314810",
"/  c #354910",
"(  c #344811",
")  c #344911",
"_  c #364810",
"`  c #374810",
"'  c #364910",
"]  c #354A11",
"[  c #364813",
"{  c #374813",
"}  c #374E11",
"|  c #374C12",
" . c #364A11",
".. c #384B10",
"X. c #384A11",
"o. c #3A4913",
"O. c #394A12",
"+. c #3A4B12",
"@. c #384C11",
"#. c #3A4D10",
"$. c #3B4F10",
"%. c #3B4F11",
"&. c #384D12",
"*. c #3A4C13",
"=. c #3A4E13",
"-. c #3A4B15",
";. c #3F4B15",
":. c #394F14",
">. c #394E15",
",. c #3E4D16",
"<. c #3B4C12",
"1. c #35431A",
"2. c #384619",
"3. c #3D4A1A",
"4. c #3D4B1B",
"5. c #375110",
"6. c #395011",
"7. c #3D5110",
"8. c #3E5010",
"9. c #3E5110",
"0. c #3C5310",
"q. c #3E5712",
"w. c #3E5115",
"e. c #3D5212",
"r. c #40570F",
"t. c #43580F",
"y. c #404E17",
"u. c #404F18",
"i. c #415311",
"p. c #425611",
"a. c #435214",
"s. c #425411",
"d. c #415810",
"f. c #475E16",
"g. c #435911",
"h. c #435318",
"j. c #425319",
"k. c #435519",
"l. c #45581E",
/* pixels */
"                                                                                                                                ",
"                                                                                                                                ",
"                                                                                                                                ",
"                                                                                                                                ",
"                                                                                                                                ",
"                                                                                                                                ",
"                                                                                                                                ",
"                                                                                                                                ",
"                                                                                                                                ",
"                                                                                                                                ",
"                                                                                                                                ",
"                                                                                                                                ",
"                                                                                        =                                       ",
"                                                                                        =                                       ",
"                                                                                        t w.                                    ",
"                                                                                        o Z                                     ",
"                                                                      c                 + [                                     ",
"                          =                                       g =                   %.;.o.                                  ",
"          *                 c                                   v J 7.                  * v =                                   ",
"            *               * *                               = J J                   E v 7.*                                   ",
"            * X               *                           9 O * Z ^                   % % l 8 =                                 ",
"              .               -.Z                       + = + O =                   ^ Z = : 3 d                                 ",
"              / %             h.*                     * X + + *                     = = t t d.l                                 ",
"              ;.2.%           a.v                   < * * = = 3                   f.= J = * * g                                 ",
"              h.3.W         p 9 : q.              * + 8 . * g                   8 3 8 * O ^ = %                                 ",
"              a.o.* +       * = %.8             / = O 8 * O 1 *               v c + * * + ^ J %                                 ",
"              p p.+ +       = : d.% d         v / Z * o + X               o + J o 8 / 0 z : @ =                                 ",
"              v Y + + =     = %.o.v /       -.v = + + % % &             v } + / + = %.+ * = J * *                               ",
"            : / J * : =     d J c Z *       = * % * / % C       *     O X -.} d , @ + + o X d : +                               ",
"            %.* o = : t     t = = J } =   + X c % = :.Z $       +   X + * % % * O 0 @ 9 6.o * * O                               ",
"            7.-.J : = = =   Y J o / v c   + o Z % % v C C       X O = o $./ = + @ 0 r.l 6.l d = =                               ",
"            = -.%.% + @ = t + & * %.Z v = Z o 6.+ c + c         + o o . : : : = J i.0 = * : 1 t =                               ",
"            o Z -.& + % o = O c % + } ^ = * o % + c % %       Q Z O O X t 8 = v ,.E Z : + t d = =                               ",
"            + + o.C Z % + o X * + ^ = * * = ^ c % O v #       o + * = : : o./ # w.$ = = 3 p = s.0               *               ",
"            O d = % / / o + = * * * O X g 7.% % * * } %     + O + = = l + p.t = w.:.d + = + l = $.              +               ",
"            + g 0 + v Z c * 3 g + X . X * + X = X + = Z   % % % Z 3 + * $.t.p E ;.& % % J 6.p = l               O       t       ",
"            c = $.+ o * / O * O 8 * 8 X + * O   * o +     C & c * 3 = = t l d o.E %.E % J J q.+               . *     %.*       ",
"            W J o.= o v % * * * * 8 ^ X + + +   = % %     / o * 8 = O = i d p = E %.o.= % * d v               O O     +         ",
"            & % Z } % + * g * o O * * O X * O   o O %   / o.C v O 8 + = 7.l = Y o.J E o.C & } :             d :     v /         ",
"            % % % v [ v + 3 + O * O O O o / O     O =   + C C c Z * <.= : : 6.;.%.= 7.o.y.J 8 }           @ r.g     J +         ",
"            + Q v % % v = q.  = * O * % O J %     + +   %.% v c 8 O p.* = = l < = i r.t a.-.7.*       X = * O *   = = d         ",
"              O % o + = d :   = = O v X # $ #     $ %   d.o.p.= * + + * O = < g g , : o E J & =   O * * 9 = , = : d O           ",
"              * * = + : %./   = = = O & c Z O     % *   o H c * + * * = * * * * 8 = = = @ E @ , d + + * s * = j g.* =           ",
"              5.O 8 d g = o.  * O * Z % v J %     % v   % + % * X * + g * + 8 * * + d = + O + i.g * 8 = @ * = , p * *           ",
"              * O O * + 8 p     c % c c v o %     Z 8 * O * = * O = = * 1 * 3 = 8 * = O + = K <.t.: d * X = = = : :             ",
"                + o.c o * +     Z * g ^ / o %     = * O O + * + O * * * 3 g :   g g 3 * + * k.& t d r.= = = g 9 t.t             ",
"                % % v : * =     * * 3 1 + % v     * + * O < o = O * * * O =     d : q.+ o = & * = = < * @ + = = = p.            ",
"                = C c = + 8     = O * ^ Q % c     + * = = = + * * * g * + *     9 3 * 8 = Y Q } 9 d 3 * = = = & +               ",
"                = = 8 , + *     * + * * [ c #     % O + + = O * + * * =   +     , d * , 8 / Z 8 8 = + + o O + & +               ",
"                O o + O = *     * X O * J C 1.Q     = * d = % + % o O     Z     = t.= + 8 * : * * * + + + X = *                 ",
"                  + * + * +     X X O * c Z W 1.    = d 6.= c # # # O     *     + = O O + O ^ * * * : , J E / X                 ",
"                  * 8 8 % O     X O 3 * O % Q w.    d 6.= o + % Z + C     *   O O + 3 = + O O O . + + 9 * + o                   ",
"                  X * = + *     . X d * X @ % y.-.    W o.J / % -.c %     o + C t O + + O X * + + + 9 8 = +                     ",
"                  X X + * * *     X 8 = O = = ~ E     E -.c Z W % % o     v = Z 3 = = O 8 O * = * + * . *                       ",
"                  O O O * * 3     = X + = t E W Z       [ Q Z v C v O     ^ = + O = O + * = * = + + * X                         ",
"                  + * O = * 8 +   / # o = + C v } c     J c W % C / ^     o O * + + O + * O O * 8 O +                           ",
"                    + X X O * 1     = * = + J -.C &       c Z O   2.%     + * * * X O + + + O * / * +                           ",
"                    * O = * c * O     6.* = / & [ Z O       + =   4.W     o O * X o + 8 * O O * l +                             ",
"                      * * 1.W ^ 3 O     = + $.E ,.% +       * X   l.Z   * O * * X * + o * * O * 3 O                             ",
"                      O c % % $ W W         + ~ 6.: =         +   % v   * 8 g * 3 * *   O = . * X                               ",
"                        | 2.2.W % E X         = %.= o *       O * o * * O * * * 8 *     O + . X X                               ",
"                            4.C o 0 X +           = * 8       O = O : * O + * *   8     * O O +                                 ",
"                                + i.+ * 3           ^ O o     o % + * O * * * =   t     X o Z                                   ",
"                                  = t * 8 d             *     O +   < O * *   =         + O                                     "
};
