/* XPM */
static char *_206147a35a14946cb1a65120becfd29nVgZo4yPA74d1Jc1[] = {
/* columns rows colors chars-per-pixel */
"64 64 166 2 ",
"   c None",
".  c #2C2C07",
"X  c #2E2209",
"o  c #302805",
"O  c #3E3F07",
"+  c #363309",
"@  c #353B0B",
"#  c #423F0E",
"$  c #5B360E",
"%  c #642D10",
"&  c #3C430E",
"*  c #3B4311",
"=  c #3A4912",
"-  c #41450C",
";  c #49450C",
":  c #454E0D",
">  c #49510F",
",  c #535D0D",
"<  c #464F12",
"1  c #475010",
"2  c #4A5312",
"3  c #4F5C16",
"4  c #535516",
"5  c #6F470F",
"6  c #68571B",
"7  c #546117",
"8  c #546219",
"9  c #745720",
"0  c #65672A",
"q  c #9E090C",
"w  c #9E130F",
"e  c #96151A",
"r  c #9D161D",
"t  c #92191C",
"y  c #9B181E",
"u  c #A5080B",
"i  c #AC0B0C",
"p  c #B20C0D",
"a  c #A6100C",
"s  c #AF150E",
"d  c #B5120F",
"f  c #BB0D11",
"g  c #A4171D",
"h  c #A4191F",
"j  c #B61512",
"k  c #BB1413",
"l  c #BC1A12",
"z  c #BD1718",
"x  c #B61B1A",
"c  c #BC1A1C",
"v  c #963012",
"b  c #A31B24",
"n  c #AB1C24",
"m  c #A51D28",
"M  c #AC1F2A",
"N  c #B41C22",
"B  c #BB1C21",
"V  c #A4212B",
"C  c #AB202D",
"Z  c #B5212C",
"A  c #BC222E",
"S  c #B42233",
"D  c #BB2739",
"F  c #C00D13",
"G  c #C31415",
"H  c #CA1517",
"J  c #C61B15",
"K  c #CA1A16",
"L  c #C51618",
"P  c #CC1519",
"I  c #C61A1C",
"U  c #CC1B1B",
"Y  c #D31C1D",
"T  c #C52313",
"R  c #DB2F17",
"E  c #D4211D",
"W  c #DC241D",
"Q  c #DD2A18",
"!  c #DC331B",
"~  c #E3261C",
"^  c #E32B1C",
"/  c #E82B1F",
"(  c #E5311F",
")  c #CF1D20",
"_  c #D41D22",
"`  c #D81E23",
"'  c #D91F2A",
"]  c #CF2122",
"[  c #CE262B",
"{  c #D62123",
"}  c #DB2424",
"|  c #DE2926",
" . c #DD252A",
".. c #DE2929",
"X. c #DC3826",
"o. c #D5332C",
"O. c #DB372C",
"+. c #DD392E",
"@. c #C12731",
"#. c #DC2631",
"$. c #DF2830",
"%. c #DE3A31",
"&. c #E42723",
"*. c #E92621",
"=. c #E32A26",
"-. c #EA2B24",
";. c #E0272C",
":. c #E22C2B",
">. c #ED2C2B",
",. c #F02F2D",
"<. c #E43424",
"1. c #E93220",
"2. c #E23825",
"3. c #E4342C",
"4. c #EC332E",
"5. c #E43B2C",
"6. c #E93E2E",
"7. c #E22732",
"8. c #E32C32",
"9. c #E92E34",
"0. c #E22E3A",
"q. c #E63232",
"w. c #EA3335",
"e. c #E33E32",
"r. c #EC3A35",
"t. c #E5333D",
"y. c #ED353B",
"u. c #EC3B3B",
"i. c #F13231",
"p. c #F33537",
"a. c #F23434",
"s. c #F23835",
"d. c #F33A3C",
"f. c #F53B3C",
"g. c #F23D3E",
"h. c #F63D3E",
"j. c #F13A3B",
"k. c #F83D3F",
"l. c #DF4536",
"z. c #DF4538",
"x. c #E24435",
"c. c #E04836",
"v. c #EF443C",
"b. c #F14338",
"n. c #EC3544",
"m. c #ED3542",
"M. c #EE3A41",
"N. c #EF3D42",
"B. c #F03D42",
"V. c #F53D41",
"C. c #F43D44",
"Z. c #F13A45",
"A. c #F83F43",
"S. c #F13E49",
"D. c #F14543",
"F. c #F24547",
"G. c #F04242",
"H. c #F94142",
"J. c #F24349",
"K. c #F3444B",
"L. c #F3444D",
"P. c #F64B4F",
"I. c #F74B50",
"U. c #F94C53",
"Y. c #F94C55",
"T. c #F75355",
/* pixels */
"                                                                                                                                ",
"                                                                                                                                ",
"                                                                                                                                ",
"                                                                                                                                ",
"                                                                                                                                ",
"                                                                                                                                ",
"                                                                                                                                ",
"                                                                                                                                ",
"                                                                                                                                ",
"                                                                                                                                ",
"                                                        | =.:.    u.4.-.-.^                                                     ",
"                                                    E  .:.w.M.I.F.Y.V.4.i.q.4./                                                 ",
"                                            [ G U {  .$.$.y.L.I.F.T.I.g.r.r.w.q.5.J                                             ",
"                                        8.n.n.) _  .$.0.t.t.M.D.u.D.I.L.Z.Z.y.r.q.3.C.f.b.                                      ",
"                                        } :.0.Y  .#.8.t.m.q.q.u.r.r.G.L.J.F.B.y.q.w.k.h.f.b.                                    ",
"                                      U _ } #._  .#.0.t.8.3.8.r.q.3.r.M.J.K.K.B.w.w.k.A.s.r.                                    ",
"                                    D U U Y }  .' 0.0.8.:.:.q.q.q.:.q.N.M.L.L.S.9.f.H.A.i.6.                                    ",
"                                    A I U Y Y ;.' n.0. .=.=.:.q.3.3.q.N.y.Z.S.n.9.H.f.,.-.6.                                    ",
"                                  D A I H P Y }  .7.;.} } ....8.3.:.q.w.y.y.n.7.9.k.,.-./ x.                                    ",
"                                  S Z I G P Y Y }  .} } :.:...:.:...q.w.w.d.y.' y.p.-./ ( b.                                    ",
"                                  S Z I G G Y Y _ _ ` } ........:.:.3.w.9.p.7.' d.,.-./ ( x.                                    ",
"                                  C M B z L P P U Y ` } .... . ...:.q.w.y.7.' y.a.*.-./ <.x.                                    ",
"                                  C M B z G H H P Y _ | ..........:.q.w.9.' ` 9.,./ / / 5.x.                                    ",
"                                  C m B c k G G U Y Y ........ .| ..:.w.9.` P =.*.~ ^ / 5.l.                                    ",
"                                  V m N B k G L H H _ } ..}  . .:.| :.9.:.Y P >.*.~ ^ ( 5.z.                                    ",
"                                  V m n B c z f F H U ` ....} ..| } =.8.' P ' -.~ ~ =.2.e.c.                                    ",
"                                    m n N c k k G L ) ` ..........W } :.Y P } / ~ ^ ( 3.%.                                      ",
"                                    m b N c z k f k U { { } { } } W | } P P Y ~ Q ^ <.3.%.                                      ",
"                                    b b n B c f k G U _ _ { E { } W W Y P H ~ ~ Q ^ 2.e.                                        ",
"                                    b b n B c k k f L ) ) { { { Y ~ Y Y H H ~ ~ ^ ( 5.%.                                        ",
"                                      h n x c z j f G U ) ) ] E W E Y H f K W ~ ^ <.+.+.                                        ",
"                                      g b N B c k d k U ) U U U Y E K H f K ~ Q <.2.+.%.                                        ",
"                                      h g V B c k d k L U L K U K E K G f H Q ^ 2.3.+.o.                                        ",
"                                        r h N c z j k J L G J L K E K k p H Q R 2.X.o.                                          ",
"                                        g y C x x j k G G z J J J K K d p K R R 3.O.                                            ",
"                                        r e h c c j j k k k k l l J J d i K R ! 5.                                              ",
"                                          e y h c x j z d j j d j l J i u T R !                                                 ",
"                                            t b N x j j d j l d j l l a q T                                                     ",
"                                              t V N x j s d   % $ 5 v w                                                         ",
"                                                              X - 4                                                             ",
"                                                              X O                                                               ",
"                                                              o O                                                               ",
"                                                              . -                                                               ",
"                                                              + *                                                               ",
"                                                              4 O                                                               ",
"                                                              2 @                                                               ",
"                                                              2 @                                                               ",
"                                                              2 @                                                               ",
"                                                              1 *                                                               ",
"                                                              1 *                                                               ",
"                                                              > &                                                               ",
"                                                              > *                                                               ",
"                                                              > &                                                               ",
"                                                              & =                                                               ",
"                                                              @ <                                                               ",
"                                                              . 2                                                               ",
"                                                                3                                                               ",
"                                                                8                                                               ",
"                                                                8                                                               ",
"                                                                , 0                                                             ",
"                                                                , 6                                                             ",
"                                                                , ; 9                                                           ",
"                                                                : @                                                             ",
"                                                                & =                                                             "
};
